<?xml version="1.0" encoding="utf-8"?>
<!-- Generator: Adobe Illustrator 16.0.0, SVG Export Plug-In . SVG Version: 6.00 Build 0)  -->
<!DOCTYPE svg PUBLIC "-//W3C//DTD SVG 1.1//EN" "http://www.w3.org/Graphics/SVG/1.1/DTD/svg11.dtd">
<svg version="1.1" id="Layer_1" xmlns="http://www.w3.org/2000/svg" xmlns:xlink="http://www.w3.org/1999/xlink" x="0px" y="0px"
	 width="2834.65px" height="283.46px" viewBox="0 0 2834.65 283.46" enable-background="new 0 0 2834.65 283.46"
	 xml:space="preserve">
<g>
	<circle fill="#FFFFFF" cx="271.193" cy="144.762" r="66"/>
	<g>
		<path fill="none" stroke="#3CA8DF" stroke-width="7" stroke-linecap="round" stroke-miterlimit="10" d="M379.87,113.485
			c15.332,0,15.332,9.978,30.664,9.978c15.333,0,15.333-9.978,30.666-9.978s15.333,9.978,30.665,9.978
			c15.334,0,15.334-9.978,30.669-9.978s15.335,9.978,30.669,9.978"/>
	</g>
	<g>
		<path fill="none" stroke="#3CA8DF" stroke-width="7" stroke-linecap="round" stroke-miterlimit="10" d="M379.87,139.773
			c15.332,0,15.332,9.979,30.664,9.979c15.333,0,15.333-9.979,30.666-9.979s15.333,9.979,30.665,9.979
			c15.334,0,15.334-9.979,30.669-9.979s15.335,9.979,30.669,9.979"/>
	</g>
	<g>
		<path fill="none" stroke="#3CA8DF" stroke-width="7" stroke-linecap="round" stroke-miterlimit="10" d="M379.87,166.062
			c15.332,0,15.332,9.979,30.664,9.979c15.333,0,15.333-9.979,30.666-9.979s15.333,9.979,30.665,9.979
			c15.334,0,15.334-9.979,30.669-9.979s15.335,9.979,30.669,9.979"/>
	</g>
	<g>
		<path fill="none" stroke="#3CA8DF" stroke-width="7" stroke-linecap="round" stroke-miterlimit="10" d="M379.87,192.352
			c15.332,0,15.332,9.979,30.664,9.979c15.333,0,15.333-9.979,30.666-9.979s15.333,9.979,30.665,9.979
			c15.334,0,15.334-9.979,30.669-9.979s15.335,9.979,30.669,9.979"/>
	</g>
	<g>
		<path fill="none" stroke="#3CA8DF" stroke-width="7" stroke-linecap="round" stroke-miterlimit="10" d="M379.87,87.196
			c15.332,0,15.332,9.978,30.664,9.978c15.333,0,15.333-9.978,30.666-9.978s15.333,9.978,30.665,9.978
			c15.334,0,15.334-9.978,30.669-9.978s15.335,9.978,30.669,9.978"/>
	</g>
	<path fill="#3CA8DF" d="M219.772,207.498c-0.323-2.721-0.107-5.145,0.938-6.951c-1.404-1.945-2.311-4.285-2.516-6.846
		c-0.396-4.959,1.924-9.508,5.718-12.166c-1.126-1.785-1.845-3.867-2.026-6.109c-0.596-7.463,4.967-13.998,12.431-14.596
		c7.462-0.598,13.999,4.967,14.597,12.43c0.397,4.959-1.926,9.508-5.72,12.168c1.128,1.783,1.849,3.867,2.026,6.109
		c0.447,5.557-2.521,10.594-7.149,13.055c0.374,0.922,0.694,1.898,0.971,2.91"/>
	<g>
		<circle fill="#E20717" cx="236.007" cy="163.813" r="8.863"/>
	</g>
	<path fill="#3CA8DF" d="M320.947,207.5c0.601-3.445,0.504-6.541-0.799-8.711c1.373-1.967,2.244-4.32,2.41-6.885
		c0.319-4.965-2.071-9.477-5.906-12.076c1.098-1.803,1.785-3.895,1.93-6.137c0.479-7.473-5.184-13.92-12.656-14.402
		c-7.471-0.48-13.92,5.186-14.401,12.654c-0.32,4.965,2.073,9.479,5.908,12.078c-1.099,1.805-1.786,3.896-1.931,6.139
		c-0.361,5.566,2.686,10.557,7.352,12.943c-0.529,1.367-0.944,2.85-1.265,4.396"/>
	<path fill="#3CA8DF" d="M310.479,232.291"/>
	<g>
		<path fill="#39A8E0" d="M235.836,125.742l11.818-0.182c0.386-0.005,0.703,0.302,0.709,0.688c0.004,0.384-0.302,0.702-0.688,0.708
			l-11.819,0.181c-0.387,0.007-0.704-0.301-0.709-0.686C235.143,126.065,235.449,125.748,235.836,125.742z"/>
	</g>
	<g>
		<path fill="#E20717" d="M250.524,131c-3.081,0.048-5.613-2.41-5.66-5.489c-0.046-3.079,2.409-5.613,5.487-5.66
			c3.082-0.047,5.614,2.411,5.66,5.488C256.06,128.419,253.604,130.954,250.524,131z"/>
	</g>
	<g>
		<path fill="#39A8E0" d="M235.889,129.428c-1.648,0.024-3.006-1.293-3.032-2.942c-0.024-1.65,1.292-3.009,2.94-3.034
			c1.652-0.026,3.01,1.292,3.036,2.943C238.857,128.044,237.541,129.402,235.889,129.428z"/>
	</g>
	<g>
		<path fill="#39A8E0" d="M304.062,123.983l-11.818,0.182c-0.386,0.006-0.705-0.302-0.709-0.688
			c-0.004-0.385,0.302-0.702,0.688-0.708l11.818-0.181c0.386-0.007,0.705,0.301,0.709,0.686
			C304.756,123.659,304.448,123.977,304.062,123.983z"/>
	</g>
	<g>
		<path fill="#E20717" d="M289.374,118.724c3.08-0.047,5.612,2.41,5.659,5.489c0.047,3.078-2.408,5.612-5.486,5.661
			c-3.082,0.046-5.615-2.411-5.66-5.489C283.839,121.306,286.294,118.771,289.374,118.724z"/>
	</g>
	<g>
		<path fill="none" d="M266.93,121.931c0,0,3.816-6.904,7.843-0.12C274.772,121.811,270.945,127.975,266.93,121.931z"/>
	</g>
	<g>
		<path fill="#39A8E0" d="M269.158,100.672c-10.828,0.166-19.457,9.925-19.274,21.796l0.364,23.764l39.213-0.602l-0.365-23.765
			C288.912,109.995,279.986,100.505,269.158,100.672z"/>
	</g>
	<g>
		<path fill="#39A8E0" d="M304.009,120.296c1.649-0.024,3.007,1.293,3.032,2.942c0.025,1.651-1.291,3.01-2.94,3.035
			c-1.653,0.026-3.009-1.292-3.035-2.943C301.04,121.681,302.355,120.322,304.009,120.296z"/>
	</g>
	<g>
		<path fill="#39A8E0" d="M236.666,207.5l-0.71-51.725c-0.081-5.35,4.358-9.754,9.919-9.84l48.15-0.738
			c5.557-0.086,10.133,4.182,10.216,9.531l0.712,52.771"/>
	</g>
	<g>
		<path fill="#E20717" d="M304.229,153.957c4.875-0.076,8.891,3.818,8.965,8.695c0.074,4.875-3.818,8.889-8.693,8.963
			L304.229,153.957z"/>
	</g>
	<g>
		<circle fill="#E20717" cx="280.073" cy="175.377" r="2.239"/>
	</g>
	<g>
		<circle fill="#E20717" cx="287.668" cy="175.26" r="2.239"/>
	</g>
	<g>
		<circle fill="#E20717" cx="295.266" cy="175.144" r="2.238"/>
	</g>
	<g>
		<path fill="none" d="M304.766,188.857c0.063,4.189-4.395,7.656-9.951,7.742l-48.15,0.738c-5.56,0.086-10.12-3.24-10.184-7.43
			l-0.557-36.23c-0.064-4.191,4.391-7.656,9.951-7.742l48.15-0.738c5.557-0.086,10.119,3.242,10.184,7.432L304.766,188.857z"/>
	</g>
	<g>
		<path fill="#F1ACCD" d="M246.431,188.262l-10.212,0.156l-0.021-1.395l9.516-0.146l-0.129-8.447
			c-0.007-0.387,0.301-0.703,0.686-0.709l10.341-0.16l-0.176-11.445l1.395-0.02l0.187,12.143c0.006,0.385-0.302,0.703-0.687,0.709
			l-10.341,0.158l0.13,8.449C247.124,187.938,246.817,188.254,246.431,188.262z"/>
	</g>
	<g>
		<path fill="#F1ACCD" d="M275.194,159.836l-1.396,0.021l-0.152-9.934c-0.005-0.385,0.302-0.701,0.687-0.707l18.987-0.291
			l-0.057-3.617l1.395-0.021l0.066,4.312c0.008,0.385-0.301,0.705-0.686,0.709l-18.987,0.293L275.194,159.836z"/>
	</g>
	<g>
		<path fill="#F1ACCD" d="M272.971,195.107l-19.283,0.297c-0.385,0.008-0.702-0.301-0.707-0.688l-0.15-9.707l-6.447,0.1
			l-0.021-1.396l7.146-0.109c0.385-0.008,0.701,0.301,0.708,0.688l0.148,9.709l17.888-0.275l-0.101-6.557
			c-0.005-0.385,0.303-0.701,0.688-0.709l18.442-0.283l-0.073-4.82c-0.005-0.385,0.302-0.701,0.687-0.707l12.963-0.199l0.022,1.395
			l-12.267,0.188l0.074,4.824c0.006,0.383-0.301,0.699-0.686,0.705l-18.444,0.283l0.101,6.557
			C273.664,194.785,273.355,195.102,272.971,195.107z"/>
	</g>
	<g>
		<path fill="#F1ACCD" d="M258.715,158.672l-1.396,0.02l-0.081-5.229l-9.725,0.148c-0.385,0.006-0.701-0.301-0.707-0.686
			l-0.108-7.045l1.395-0.021l0.097,6.348l9.725-0.15c0.387-0.004,0.703,0.303,0.709,0.688L258.715,158.672z"/>
	</g>
	<g>
		<path fill="#E20717" d="M293.504,196.658l-1.395,0.023l-0.055-3.602l-13.166,0.203c-0.385,0.004-0.701-0.303-0.709-0.688
			l-0.147-9.709l-15.831,0.242c-0.387,0.006-0.703-0.303-0.71-0.686l-0.224-14.664l1.395-0.021l0.216,13.965l15.83-0.242
			c0.384-0.006,0.702,0.301,0.708,0.688l0.149,9.709l13.164-0.203c0.386-0.004,0.702,0.303,0.708,0.689L293.504,196.658z"/>
	</g>
	<g>
		<polygon fill="#DEDC06" points="248.157,156.309 299.869,155.518 300.07,168.602 248.357,169.398 		"/>
	</g>
	<g>
		<path fill="#DEDC06" d="M275.449,102.896c0.026,1.741-2.069,3.186-4.683,3.227c-2.61,0.04-4.753-1.341-4.779-3.081l4.566-10.857
			L275.449,102.896z"/>
	</g>
	<g>
		<path fill="#1E1E1C" d="M270.551,164.732c0.011,0.689-0.665,1.264-1.506,1.277l-16.553,0.254c-0.844,0.014-1.537-0.539-1.549-1.23
			l-0.066-4.443c-0.01-0.691,0.664-1.262,1.506-1.273l16.555-0.256c0.843-0.014,1.535,0.537,1.545,1.229L270.551,164.732z"/>
	</g>
	<g>
		<path fill="#F1ACCD" d="M282.781,121.305c-0.111-7.255-6.083-13.044-13.335-12.933c-7.254,0.112-13.043,6.083-12.933,13.336
			c0,0-1.084,17.042,13.395,16.821c14.482-0.224,12.887-16.462,12.887-16.462"/>
	</g>
	<g>
		<path fill="#FFFFFF" d="M260.085,120.009c0,0,3.813-6.905,7.84-0.12C267.925,119.889,264.098,126.053,260.085,120.009z"/>
	</g>
	<g>
		<path fill="#FFFFFF" d="M272.208,119.823c0,0,3.816-6.905,7.842-0.121C280.05,119.703,276.223,125.869,272.208,119.823z"/>
	</g>
	<g>
		<g>
			<path fill="#DEDC06" d="M259.968,119.335l-1.44-0.988c0.111-0.163,2.785-4.007,6.641-4.236c1.946-0.122,3.81,0.7,5.535,2.43
				c1.217-0.951,3.9-2.75,6.531-2.505c1.434,0.134,2.633,0.837,3.568,2.084l-1.401,1.045c-0.633-0.849-1.396-1.303-2.329-1.391
				c-2.247-0.213-4.987,1.81-5.853,2.606l-0.658,0.606l-0.591-0.674c-1.512-1.726-3.089-2.556-4.693-2.46
				C262.281,116.026,259.99,119.301,259.968,119.335z"/>
		</g>
	</g>
	<g>
		<g>
			<path fill="#DEDC06" d="M259.918,116.092l-1.439-0.987c0.111-0.163,2.784-4.007,6.639-4.236c1.924-0.121,3.758,0.677,5.465,2.359
				c0.984-0.95,2.925-2.51,5.07-2.444c1.42,0.039,2.652,0.748,3.67,2.108l-1.401,1.045c-0.689-0.924-1.446-1.385-2.314-1.409
				c-1.803-0.031-3.757,1.809-4.358,2.528l-0.654,0.783l-0.672-0.769c-1.512-1.726-3.089-2.554-4.693-2.461
				C262.232,112.784,259.94,116.059,259.918,116.092z"/>
		</g>
	</g>
	<g>
		<g>
			<path fill="#DEDC06" d="M263.506,126.272c-1.594,0.025-3.293-0.503-4.811-2.061l1.25-1.219c3.299,3.38,7.42,0.147,7.592,0.007
				l1.096,1.359C267.555,125.233,265.623,126.24,263.506,126.272z"/>
		</g>
	</g>
	<g>
		<g>
			<path fill="#DEDC06" d="M276.123,125.861c-1.547,0.024-3.199-0.553-4.93-1.723l0.976-1.447c1.829,1.234,3.476,1.668,4.902,1.292
				c1.938-0.516,2.866-2.36,2.877-2.379l1.565,0.771c-0.052,0.104-1.296,2.579-3.996,3.295
				C277.063,125.791,276.598,125.854,276.123,125.861z"/>
		</g>
	</g>
	<g>
		<g>
			<path fill="#E20717" d="M279.598,131.114c-6.497,0.099-9.687-4.805-10.47-7.441c-0.233-0.79,0.216-1.619,1.007-1.855
				c0.786-0.233,1.615,0.213,1.853,1c0.073,0.24,1.775,5.5,7.735,5.31c0.009,0,0.018,0,0.024,0c0.813-0.013,1.491,0.628,1.516,1.443
				c0.026,0.823-0.619,1.513-1.443,1.54C279.747,131.11,279.673,131.113,279.598,131.114z"/>
		</g>
	</g>
	<g>
		
			<ellipse transform="matrix(0.4185 -0.9082 0.9082 0.4185 36.8488 319.948)" fill="#1E1E1C" cx="268.289" cy="131.197" rx="3.164" ry="2.338"/>
	</g>
	<g>
		<path fill="#E20717" d="M267.991,135.181c-0.418,0.008-0.823-0.077-1.197-0.249c-0.833-0.386-1.433-1.188-1.644-2.203
			c-0.191-0.925-0.056-1.957,0.384-2.908c0.72-1.562,2.098-2.586,3.51-2.608c0.421-0.006,0.823,0.078,1.197,0.251
			c0.836,0.385,1.435,1.189,1.642,2.203c0.192,0.927,0.057,1.959-0.38,2.909C270.781,134.137,269.404,135.16,267.991,135.181z
			 M269.072,129.109c-0.545,0.008-1.344,0.483-1.816,1.506c-0.265,0.574-0.356,1.207-0.248,1.729
			c0.051,0.246,0.195,0.685,0.583,0.865c0.113,0.052,0.239,0.079,0.372,0.075c0.545-0.007,1.345-0.482,1.816-1.505
			c0.266-0.576,0.357-1.206,0.248-1.728c-0.051-0.247-0.195-0.687-0.58-0.866C269.332,129.133,269.205,129.106,269.072,129.109z"/>
	</g>
	<circle fill="#E20717" cx="263.747" cy="120.042" r="2.159"/>
	<circle fill="#E20717" cx="276.129" cy="119.785" r="2.16"/>
	<path fill="#DFDD0D" d="M272.667,79.396c0,0,4-69.333,123.333-69.333c0,0-48.667,12.667-48.667,69.333H272.667z"/>
	<path fill="#DFDD0D" d="M272.667,204.062c0,0,4,69.334,123.333,69.334c0,0-48.667-12.666-48.667-69.334H272.667z"/>
	<path fill="#E30613" d="M373,62.793H143.333v160H373c11.598,0,21-35.816,21-80C394,98.61,384.598,62.793,373,62.793z
		 M271.001,200.459c-32.218,0-58.334-26.115-58.334-58.333c0-32.216,26.116-58.333,58.334-58.333
		c32.216,0,58.332,26.117,58.332,58.333C329.333,174.344,303.217,200.459,271.001,200.459z"/>
	<path fill="#3CA8DF" d="M143.333,62.793c0,0-28.667,1.937-70,23.937C33.159,108.112,0,142.793,0,142.793
		s32.832,32.33,71.333,53.269c38,20.668,72,26.73,72,26.73c11.598,0,21-35.816,21-80C164.333,98.61,154.931,62.793,143.333,62.793z"
		/>
</g>
<g>
	<path fill="#FFFFFF" d="M663.725,143.666c-2.522,0-4.85-1.358-4.85-4.851c0-3.492,2.328-4.85,4.85-4.85h19.109v19.108
		c0,9.409-6.305,15.229-15.52,15.229H650.63c-4.462,0-7.76-0.776-11.155-3.88c-3.88-3.492-4.559-7.081-4.559-11.931v-24.25
		c0-6.208,1.358-9.409,5.044-14.162l11.446-14.647c3.88-4.947,7.275-6.596,13.58-6.596h12.998c2.522,0,4.85,1.358,4.85,4.85
		c0,3.492-2.328,4.85-4.85,4.85h-11.64c-5.335,0-4.947-0.097-8.148,3.977l-10.573,13.483c-3.007,3.783-3.007,7.857-3.007,12.61
		v19.013c0,5.335,1.164,6.983,6.693,6.983h15.423c3.492,0,6.402-0.775,6.402-5.044v-9.894H663.725z"/>
	<path fill="#FFFFFF" d="M714.455,163.454c0,3.104-1.358,4.85-4.85,4.85s-4.85-1.746-4.85-4.85V92.837h32.592
		c7.663,0,15.326,5.432,15.326,14.065v6.693c0,9.118-7.566,13.774-15.326,13.774h-8.924l21.825,31.234
		c1.067,1.455,2.425,3.298,2.425,5.142c0,2.716-2.231,4.559-4.947,4.559c-1.94,0-3.201-1.164-4.268-2.716l-26.772-38.218h-2.231
		V163.454z M714.455,117.669h21.534c2.716,0,6.984-0.194,6.984-4.074v-6.693c0-3.88-3.977-4.365-6.887-4.365h-21.631V117.669z"/>
	<path fill="#FFFFFF" d="M817.662,158.604c2.522,0,4.85,1.358,4.85,4.851c0,3.491-2.328,4.85-4.85,4.85h-43.068V92.837h43.068
		c2.522,0,4.85,1.358,4.85,4.85c0,3.492-2.328,4.85-4.85,4.85h-33.368v23.183h14.259c2.522,0,4.85,1.358,4.85,4.85
		c0,3.492-2.328,4.85-4.85,4.85h-14.259v23.183H817.662z"/>
	<path fill="#FFFFFF" d="M887.501,158.604c2.522,0,4.85,1.358,4.85,4.851c0,3.491-2.328,4.85-4.85,4.85h-43.068V92.837h43.068
		c2.522,0,4.85,1.358,4.85,4.85c0,3.492-2.328,4.85-4.85,4.85h-33.368v23.183h14.259c2.522,0,4.85,1.358,4.85,4.85
		c0,3.492-2.328,4.85-4.85,4.85h-14.259v23.183H887.501z"/>
	<path fill="#FFFFFF" d="M923.972,102.538v3.492c0,3.104-1.358,4.85-4.85,4.85s-4.85-1.746-4.85-4.85V92.837h47.918v13.192
		c0,3.104-1.358,4.85-4.85,4.85c-3.492,0-4.85-1.746-4.85-4.85v-3.492h-9.409v60.917c0,3.104-1.358,4.85-4.85,4.85
		c-3.492,0-4.85-1.746-4.85-4.85v-60.917H923.972z"/>
	<path fill="#FFFFFF" d="M1012.919,158.604h14.259c2.522,0,4.85,1.358,4.85,4.851c0,3.491-2.328,4.85-4.85,4.85H988.96
		c-2.522,0-4.85-1.358-4.85-4.85c0-3.492,2.328-4.851,4.85-4.851h14.259v-56.066H988.96c-2.522,0-4.85-1.358-4.85-4.85
		c0-3.492,2.328-4.85,4.85-4.85h38.218c2.522,0,4.85,1.358,4.85,4.85c0,3.492-2.328,4.85-4.85,4.85h-14.259V158.604z"/>
	<path fill="#FFFFFF" d="M1092.264,97.785c0-3.104,1.358-4.85,4.85-4.85c3.492,0,4.85,1.746,4.85,4.85V168.4h-12.804l-25.317-58.2
		v-0.097h-0.194v53.351c0,3.104-1.358,4.85-4.85,4.85s-4.85-1.746-4.85-4.85V92.837h12.804l25.317,58.879h-0.097h0.194
		L1092.264,97.785z"/>
	<path fill="#FFFFFF" d="M1152.597,143.666c-2.522,0-4.85-1.358-4.85-4.851c0-3.492,2.328-4.85,4.85-4.85h19.109v19.108
		c0,9.409-6.305,15.229-15.52,15.229h-16.684c-4.462,0-7.76-0.776-11.155-3.88c-3.88-3.492-4.559-7.081-4.559-11.931v-24.25
		c0-6.208,1.358-9.409,5.044-14.162l11.446-14.647c3.88-4.947,7.275-6.596,13.58-6.596h12.998c2.522,0,4.85,1.358,4.85,4.85
		c0,3.492-2.328,4.85-4.85,4.85h-11.64c-5.335,0-4.947-0.097-8.148,3.977l-10.573,13.483c-3.007,3.783-3.007,7.857-3.007,12.61
		v19.013c0,5.335,1.164,6.983,6.693,6.983h15.423c3.492,0,6.402-0.775,6.402-5.044v-9.894H1152.597z"/>
	<path fill="#FFFFFF" d="M1238.15,149.292c1.94,2.521,3.395,4.753,3.395,8.051c0,7.275-5.529,10.961-12.222,10.961h-21.34
		c-3.686,0-6.887-0.679-9.797-3.104c-2.619-2.134-4.559-5.626-4.559-9.021c0-3.104,1.746-5.82,5.141-5.82
		c2.813,0,4.559,2.328,4.559,4.947c0,2.91,1.552,3.298,4.268,3.298h21.049c0.776,0,3.201,0.291,3.201-1.164
		c0-0.775-1.358-2.23-1.746-2.812l-33.271-42.777c-2.037-2.619-3.201-4.559-3.201-7.954c0-3.88,1.843-7.178,5.141-9.312
		c2.716-1.746,4.947-1.746,8.051-1.746h20.564c3.686,0,6.79,0.776,9.603,3.201c2.522,2.231,4.559,5.82,4.559,9.215
		c0,3.104-1.552,5.626-5.044,5.626c-2.91,0-4.656-1.843-4.656-4.559c0-3.298-1.649-3.783-4.656-3.783h-20.564
		c-1.067,0-3.298-0.291-3.298,1.358c0,0.873,1.067,2.037,1.455,2.619L1238.15,149.292z"/>
	<path fill="#FFFFFF" d="M1277.919,143.666c-2.522,0-4.85-1.358-4.85-4.851c0-3.492,2.328-4.85,4.85-4.85h18.042
		c1.746,0,2.813,0,4.268,1.358c1.552,1.455,1.552,2.813,1.552,4.85v23.28c0,3.104-1.358,4.85-4.85,4.85
		c-3.492,0-4.85-1.746-4.85-4.85v-19.788H1277.919z"/>
	<path fill="#FFFFFF" d="M1412.844,163.454c0,3.104-1.358,4.85-4.851,4.85c-3.491,0-4.85-1.746-4.85-4.85V92.837h32.204
		c4.462,0,7.663,0.679,11.155,3.977c4.171,3.88,4.559,7.469,4.559,12.707v13.192c0,4.947-0.388,8.439-3.977,12.416
		c-3.783,4.268-7.761,4.656-12.998,4.656h-21.243V163.454z M1412.844,130.085h21.534c5.723,0,6.983-1.455,6.983-6.984v-13.58
		c0-5.529-1.261-6.984-6.983-6.984h-21.534V130.085z"/>
	<path fill="#FFFFFF" d="M1516.051,158.604c2.521,0,4.85,1.358,4.85,4.851c0,3.491-2.328,4.85-4.85,4.85h-43.068V92.837h43.068
		c2.521,0,4.85,1.358,4.85,4.85c0,3.492-2.328,4.85-4.85,4.85h-33.368v23.183h14.259c2.522,0,4.851,1.358,4.851,4.85
		c0,3.492-2.328,4.85-4.851,4.85h-14.259v23.183H1516.051z"/>
	<path fill="#FFFFFF" d="M1588.218,120.095c1.843,3.783,2.521,6.596,2.521,10.767c0,4.656-1.261,7.566-3.201,11.543l-8.924,17.848
		c-2.328,4.656-6.208,8.051-11.834,8.051s-9.506-3.395-11.834-8.051l-8.924-17.848c-1.94-3.977-3.201-6.887-3.201-11.543
		c0-4.171,0.679-6.984,2.522-10.767l9.699-19.303c2.328-4.559,6.306-7.954,11.737-7.954c5.433,0,9.409,3.395,11.737,7.954
		L1588.218,120.095z M1570.078,105.448c-0.775-1.552-1.261-2.91-3.298-2.91s-2.521,1.358-3.298,2.91l-8.73,17.557
		c-1.454,2.813-2.23,4.656-2.23,7.857c0,2.522,0.582,4.268,1.648,6.402l9.312,18.43c0.679,1.358,1.358,2.91,3.298,2.91
		c1.94,0,2.619-1.552,3.298-2.91l9.312-18.43c1.066-2.134,1.648-3.88,1.648-6.402c0-3.201-0.775-5.044-2.23-7.857L1570.078,105.448z
		"/>
	<path fill="#FFFFFF" d="M1622.36,163.454c0,3.104-1.358,4.85-4.851,4.85c-3.491,0-4.85-1.746-4.85-4.85V92.837h32.204
		c4.462,0,7.663,0.679,11.155,3.977c4.171,3.88,4.559,7.469,4.559,12.707v13.192c0,4.947-0.388,8.439-3.977,12.416
		c-3.783,4.268-7.761,4.656-12.998,4.656h-21.243V163.454z M1622.36,130.085h21.534c5.723,0,6.983-1.455,6.983-6.984v-13.58
		c0-5.529-1.261-6.984-6.983-6.984h-21.534V130.085z"/>
	<path fill="#FFFFFF" d="M1725.567,158.604c2.521,0,4.85,1.358,4.85,4.851c0,3.491-2.328,4.85-4.85,4.85h-43.068V97.688
		c0-3.104,1.358-4.85,4.85-4.85c3.492,0,4.851,1.746,4.851,4.85v60.916H1725.567z"/>
	<path fill="#FFFFFF" d="M1795.406,158.604c2.521,0,4.85,1.358,4.85,4.851c0,3.491-2.328,4.85-4.85,4.85h-43.068V92.837h43.068
		c2.521,0,4.85,1.358,4.85,4.85c0,3.492-2.328,4.85-4.85,4.85h-33.368v23.183h14.259c2.522,0,4.851,1.358,4.851,4.85
		c0,3.492-2.328,4.85-4.851,4.85h-14.259v23.183H1795.406z"/>
	<path fill="#FFFFFF" d="M1937.412,120.095c1.843,3.783,2.521,6.596,2.521,10.767c0,4.656-1.261,7.566-3.201,11.543l-8.924,17.848
		c-2.328,4.656-6.208,8.051-11.834,8.051s-9.506-3.395-11.834-8.051l-8.924-17.848c-1.94-3.977-3.201-6.887-3.201-11.543
		c0-4.171,0.679-6.984,2.522-10.767l9.699-19.303c2.328-4.559,6.306-7.954,11.737-7.954s9.409,3.395,11.737,7.954L1937.412,120.095z
		 M1919.272,105.448c-0.775-1.552-1.261-2.91-3.298-2.91s-2.521,1.358-3.298,2.91l-8.73,17.557c-1.454,2.813-2.23,4.656-2.23,7.857
		c0,2.522,0.582,4.268,1.648,6.402l9.312,18.43c0.679,1.358,1.358,2.91,3.298,2.91c1.94,0,2.619-1.552,3.298-2.91l9.312-18.43
		c1.066-2.134,1.648-3.88,1.648-6.402c0-3.201-0.775-5.044-2.23-7.857L1919.272,105.448z"/>
	<path fill="#FFFFFF" d="M1961.854,92.837h43.068c2.521,0,4.85,1.358,4.85,4.85c0,3.492-2.328,4.85-4.85,4.85h-33.368v14.938h23.862
		c2.521,0,4.85,1.358,4.85,4.85s-2.328,4.85-4.85,4.85h-23.862v36.278c0,3.104-1.358,4.85-4.851,4.85c-3.491,0-4.85-1.746-4.85-4.85
		V92.837z"/>
	<path fill="#FFFFFF" d="M2144.601,158.604c2.521,0,4.85,1.358,4.85,4.851c0,3.491-2.328,4.85-4.85,4.85h-43.068V92.837h43.068
		c2.521,0,4.85,1.358,4.85,4.85c0,3.492-2.328,4.85-4.85,4.85h-33.368v23.183h14.259c2.522,0,4.851,1.358,4.851,4.85
		c0,3.492-2.328,4.85-4.851,4.85h-14.259v23.183H2144.601z"/>
	<path fill="#FFFFFF" d="M2190.383,97.785c0.776-2.619,1.844-4.947,4.947-4.947c3.201,0,4.365,2.425,5.044,4.947l18.722,65.669
		c0.679,2.327-1.94,4.85-4.656,4.85c-3.007,0-4.56-2.522-5.238-4.85l-3.589-11.641h-20.661l-3.686,11.641
		c-0.68,2.327-2.231,4.85-5.238,4.85c-2.716,0-5.335-2.522-4.656-4.85L2190.383,97.785z M2195.427,115.827h-0.193l-7.566,26.287
		h15.229L2195.427,115.827z"/>
	<path fill="#FFFFFF" d="M2250.91,163.454c0,3.104-1.358,4.85-4.851,4.85c-3.491,0-4.85-1.746-4.85-4.85V92.837h32.592
		c7.663,0,15.326,5.432,15.326,14.065v6.693c0,9.118-7.565,13.774-15.326,13.774h-8.924l21.825,31.234
		c1.067,1.455,2.425,3.298,2.425,5.142c0,2.716-2.23,4.559-4.947,4.559c-1.939,0-3.2-1.164-4.268-2.716l-26.772-38.218h-2.23
		V163.454z M2250.91,117.669h21.534c2.716,0,6.983-0.194,6.983-4.074v-6.693c0-3.88-3.977-4.365-6.887-4.365h-21.631V117.669z"/>
	<path fill="#FFFFFF" d="M2320.749,102.538v3.492c0,3.104-1.358,4.85-4.851,4.85c-3.491,0-4.85-1.746-4.85-4.85V92.837h47.918
		v13.192c0,3.104-1.357,4.85-4.85,4.85s-4.851-1.746-4.851-4.85v-3.492h-9.408v60.917c0,3.104-1.358,4.85-4.851,4.85
		s-4.85-1.746-4.85-4.85v-60.917H2320.749z"/>
	<path fill="#FFFFFF" d="M2390.588,135.421v28.033c0,3.104-1.358,4.85-4.851,4.85c-3.491,0-4.85-1.746-4.85-4.85V97.688
		c0-3.104,1.358-4.85,4.85-4.85c3.492,0,4.851,1.746,4.851,4.85v28.033h28.518V97.688c0-3.104,1.358-4.85,4.851-4.85
		s4.85,1.746,4.85,4.85v65.767c0,3.104-1.357,4.85-4.85,4.85s-4.851-1.746-4.851-4.85v-28.033H2390.588z"/>
	<path fill="#FFFFFF" d="M2471.193,155.888c-2.134,0-3.686,0-5.044-1.843c-1.066-1.455-1.066-2.522-1.066-4.365v-5.432
		c0-1.843,0-2.91,1.066-4.365c1.358-1.843,2.91-1.843,5.044-1.843h6.984c2.134,0,3.686,0,5.044,1.843
		c1.067,1.455,1.067,2.522,1.067,4.365v5.432c0,1.843,0,2.91-1.067,4.365c-1.358,1.843-2.91,1.843-5.044,1.843H2471.193z"/>
	<path fill="#FFFFFF" d="M2541.032,155.888c-2.134,0-3.686,0-5.044-1.843c-1.066-1.455-1.066-2.522-1.066-4.365v-5.432
		c0-1.843,0-2.91,1.066-4.365c1.358-1.843,2.91-1.843,5.044-1.843h6.984c2.134,0,3.686,0,5.044,1.843
		c1.067,1.455,1.067,2.522,1.067,4.365v5.432c0,1.843,0,2.91-1.067,4.365c-1.358,1.843-2.91,1.843-5.044,1.843H2541.032z"/>
	<path fill="#FFFFFF" d="M2610.871,155.888c-2.134,0-3.686,0-5.044-1.843c-1.066-1.455-1.066-2.522-1.066-4.365v-5.432
		c0-1.843,0-2.91,1.066-4.365c1.358-1.843,2.91-1.843,5.044-1.843h6.984c2.134,0,3.686,0,5.044,1.843
		c1.067,1.455,1.067,2.522,1.067,4.365v5.432c0,1.843,0,2.91-1.067,4.365c-1.358,1.843-2.91,1.843-5.044,1.843H2610.871z"/>
</g>
</svg>
