<?xml version="1.0" encoding="utf-8"?>
<!-- Generator: Adobe Illustrator 16.0.0, SVG Export Plug-In . SVG Version: 6.00 Build 0)  -->
<!DOCTYPE svg PUBLIC "-//W3C//DTD SVG 1.1//EN" "http://www.w3.org/Graphics/SVG/1.1/DTD/svg11.dtd">
<svg version="1.1" id="Layer_1" xmlns="http://www.w3.org/2000/svg" xmlns:xlink="http://www.w3.org/1999/xlink" x="0px" y="0px"
	 width="283.46px" height="283.46px" viewBox="0 0 283.46 283.46" enable-background="new 0 0 283.46 283.46" xml:space="preserve">
<path fill="#3CA8DF" d="M43.782,283.458c-0.636-5.352-0.211-10.117,1.845-13.67c-2.76-3.824-4.542-8.426-4.946-13.461
	c-0.781-9.748,3.782-18.691,11.242-23.921c-2.214-3.511-3.628-7.604-3.983-12.013c-1.173-14.672,9.766-27.523,24.44-28.698
	c14.672-1.175,27.527,9.767,28.7,24.438c0.783,9.751-3.784,18.697-11.245,23.926c2.217,3.51,3.633,7.604,3.984,12.013
	c0.88,10.927-4.956,20.831-14.058,25.671c0.734,1.812,1.366,3.729,1.909,5.723"/>
<g>
	<path fill="#E20717" d="M75.435,180.136c9.623-0.147,17.546,7.531,17.692,17.158c0.148,9.623-7.536,17.547-17.157,17.693
		c-9.628,0.147-17.548-7.537-17.696-17.16C58.128,188.205,65.809,180.285,75.435,180.136z"/>
</g>
<path fill="#3CA8DF" d="M242.719,283.46c1.179-6.771,0.989-12.859-1.57-17.125c2.699-3.869,4.412-8.496,4.735-13.539
	c0.63-9.762-4.071-18.631-11.611-23.742c2.158-3.547,3.51-7.66,3.794-12.07c0.944-14.691-10.19-27.369-24.884-28.314
	c-14.689-0.948-27.371,10.193-28.316,24.881c-0.631,9.764,4.075,18.638,11.616,23.748c-2.16,3.546-3.513,7.66-3.796,12.072
	c-0.711,10.939,5.279,20.754,14.454,25.447c-1.04,2.688-1.854,5.604-2.487,8.645"/>
<path fill="#3CA8DF" d="M222.136,332.208"/>
<g>
	<path fill="#39A8E0" d="M75.365,122.705l23.24-0.358c0.758-0.01,1.383,0.594,1.393,1.353c0.011,0.756-0.592,1.379-1.352,1.391
		l-23.237,0.356c-0.76,0.013-1.385-0.592-1.396-1.349C74.001,123.341,74.607,122.716,75.365,122.705z"/>
</g>
<g>
	<path fill="#E20717" d="M104.248,133.044c-6.058,0.094-11.037-4.738-11.129-10.792c-0.091-6.053,4.735-11.037,10.79-11.13
		c6.058-0.092,11.039,4.741,11.129,10.792C115.132,127.968,110.303,132.952,104.248,133.044z"/>
</g>
<g>
	<path fill="#39A8E0" d="M75.471,129.953c-3.242,0.048-5.911-2.543-5.962-5.787c-0.049-3.245,2.539-5.916,5.782-5.965
		c3.249-0.051,5.917,2.54,5.968,5.786C81.309,127.231,78.721,129.9,75.471,129.953z"/>
</g>
<g>
	<path fill="#39A8E0" d="M209.519,119.246l-23.238,0.357c-0.759,0.011-1.385-0.595-1.394-1.352c-0.011-0.756,0.592-1.38,1.351-1.392
		l23.238-0.356c0.76-0.013,1.385,0.591,1.395,1.348C210.88,118.609,210.276,119.233,209.519,119.246z"/>
</g>
<g>
	<path fill="#E20717" d="M180.636,108.905c6.057-0.093,11.035,4.739,11.129,10.793c0.091,6.053-4.735,11.036-10.789,11.131
		c-6.059,0.092-11.04-4.741-11.129-10.793C169.753,113.981,174.582,108.998,180.636,108.905z"/>
</g>
<g>
	<path fill="none" d="M136.506,115.21c0,0,7.501-13.576,15.419-0.236C151.925,114.975,144.399,127.095,136.506,115.21z"/>
</g>
<g>
	<path fill="#39A8E0" d="M140.888,73.41c-21.29,0.327-38.259,19.516-37.9,42.857l0.718,46.727l77.102-1.184l-0.719-46.728
		C179.729,91.741,162.177,73.083,140.888,73.41z"/>
</g>
<g>
	<path fill="#39A8E0" d="M209.412,111.997c3.243-0.049,5.912,2.542,5.963,5.786c0.051,3.245-2.539,5.917-5.781,5.966
		c-3.249,0.05-5.918-2.541-5.969-5.786C203.574,114.719,206.164,112.048,209.412,111.997z"/>
</g>
<g>
	<path fill="#39A8E0" d="M77,283.46l-1.397-101.701c-0.161-10.52,8.57-19.18,19.503-19.35l94.675-1.451
		c10.928-0.17,19.926,8.223,20.088,18.739l1.398,103.763"/>
</g>
<g>
	<path fill="#E20717" d="M209.846,178.182c9.584-0.147,17.479,7.507,17.626,17.097c0.146,9.588-7.508,17.479-17.092,17.626
		L209.846,178.182z"/>
</g>
<g>
	<path fill="#E20717" d="M162.279,215.898c2.432-0.038,4.434,1.902,4.475,4.336c0.037,2.43-1.908,4.428-4.334,4.469
		c-2.432,0.037-4.434-1.906-4.471-4.334C157.912,217.938,159.851,215.936,162.279,215.898z"/>
</g>
<g>
	<path fill="#E20717" d="M177.216,215.667c2.435-0.039,4.435,1.905,4.471,4.336c0.038,2.431-1.902,4.431-4.335,4.469
		c-2.433,0.035-4.431-1.903-4.47-4.332C172.846,217.708,174.787,215.707,177.216,215.667z"/>
</g>
<g>
	<path fill="#E20717" d="M192.154,215.44c2.434-0.039,4.43,1.901,4.471,4.333c0.039,2.432-1.903,4.43-4.336,4.469
		c-2.43,0.038-4.436-1.902-4.47-4.332C187.781,217.477,189.724,215.477,192.154,215.44z"/>
</g>
<g>
	<path fill="none" d="M210.901,246.807c0.124,8.235-8.642,15.055-19.567,15.223l-94.674,1.452
		c-10.933,0.169-19.899-6.374-20.025-14.611l-1.094-71.236c-0.125-8.24,8.634-15.055,19.566-15.223l94.675-1.453
		c10.928-0.168,19.897,6.375,20.024,14.613L210.901,246.807z"/>
</g>
<g>
	<path fill="#F1ACCD" d="M96.199,245.634l-20.078,0.308l-0.043-2.743l18.711-0.287l-0.255-16.609
		c-0.013-0.758,0.591-1.383,1.348-1.396l20.333-0.312l-0.345-22.504l2.743-0.041l0.368,23.875c0.011,0.756-0.594,1.383-1.351,1.396
		l-20.332,0.311l0.254,16.611C97.562,244.996,96.959,245.621,96.199,245.634z"/>
</g>
<g>
	<path fill="#F1ACCD" d="M152.755,189.742l-2.743,0.043l-0.3-19.533c-0.012-0.756,0.594-1.377,1.351-1.391l37.334-0.572l-0.11-7.11
		l2.741-0.044l0.132,8.48c0.014,0.758-0.594,1.385-1.349,1.395l-37.334,0.574L152.755,189.742z"/>
</g>
<g>
	<path fill="#F1ACCD" d="M148.384,259.096l-37.915,0.583c-0.758,0.013-1.381-0.59-1.391-1.352l-0.294-19.088l-12.679,0.194
		l-0.042-2.744l14.05-0.217c0.757-0.015,1.38,0.594,1.392,1.353l0.292,19.09l35.173-0.539l-0.197-12.894
		c-0.01-0.757,0.596-1.38,1.354-1.392l36.264-0.56l-0.145-9.479c-0.012-0.759,0.592-1.38,1.35-1.392l25.488-0.39l0.043,2.738
		l-24.119,0.37l0.146,9.483c0.015,0.755-0.59,1.376-1.348,1.388l-36.265,0.56l0.195,12.89
		C149.746,258.462,149.141,259.085,148.384,259.096z"/>
</g>
<g>
	<path fill="#F1ACCD" d="M120.353,187.451l-2.744,0.043l-0.159-10.283l-19.121,0.293c-0.758,0.012-1.38-0.594-1.392-1.35
		l-0.213-13.853l2.742-0.041l0.19,12.479l19.121-0.295c0.76-0.009,1.383,0.595,1.394,1.353L120.353,187.451z"/>
</g>
<g>
	<path fill="#E20717" d="M188.755,262.146l-2.74,0.044l-0.109-7.082l-25.886,0.397c-0.756,0.012-1.379-0.592-1.394-1.348
		l-0.291-19.093l-31.128,0.476c-0.759,0.012-1.381-0.593-1.395-1.348l-0.441-28.831l2.743-0.043l0.424,27.458l31.127-0.479
		c0.756-0.01,1.381,0.592,1.394,1.354l0.292,19.092l25.885-0.397c0.758-0.013,1.381,0.592,1.391,1.353L188.755,262.146z"/>
</g>
<g>
	<polygon fill="#DEDC06" points="99.593,182.807 201.271,181.25 201.667,206.979 99.988,208.542 	"/>
</g>
<g>
	<path fill="#DEDC06" d="M153.257,77.784c0.052,3.422-4.068,6.265-9.207,6.344c-5.133,0.078-9.344-2.637-9.397-6.059l8.979-21.348
		L153.257,77.784z"/>
</g>
<g>
	<path fill="#1E1E1C" d="M143.626,199.369c0.02,1.358-1.309,2.485-2.962,2.512l-32.548,0.5c-1.656,0.025-3.021-1.06-3.041-2.418
		l-0.134-8.736c-0.02-1.361,1.308-2.482,2.963-2.506l32.55-0.501c1.656-0.026,3.017,1.055,3.038,2.411L143.626,199.369z"/>
</g>
<g>
	<path fill="#F1ACCD" d="M167.673,113.98c-0.219-14.265-11.961-25.648-26.219-25.429c-14.262,0.219-25.646,11.959-25.429,26.223
		c0,0-2.131,33.509,26.338,33.075c28.473-0.439,25.335-32.369,25.335-32.369"/>
</g>
<g>
	<path fill="#FFFFFF" d="M123.046,111.432c0,0,7.5-13.577,15.416-0.236C138.462,111.196,130.937,123.316,123.046,111.432z"/>
</g>
<g>
	<path fill="#FFFFFF" d="M146.884,111.066c0,0,7.504-13.577,15.418-0.237C162.302,110.829,154.777,122.953,146.884,111.066z"/>
</g>
<g>
	<g>
		<path fill="#DEDC06" d="M122.816,110.106l-2.831-1.943c0.216-0.32,5.474-7.878,13.056-8.329c3.829-0.24,7.492,1.377,10.884,4.777
			c2.392-1.869,7.671-5.407,12.842-4.925c2.818,0.264,5.179,1.646,7.016,4.099l-2.754,2.055c-1.244-1.669-2.744-2.562-4.58-2.736
			c-4.418-0.418-9.806,3.559-11.507,5.125l-1.296,1.192l-1.161-1.325c-2.971-3.395-6.073-5.025-9.228-4.837
			C127.365,103.601,122.861,110.04,122.816,110.106z"/>
	</g>
</g>
<g>
	<g>
		<path fill="#DEDC06" d="M122.718,103.73l-2.83-1.941c0.218-0.32,5.475-7.878,13.055-8.329c3.781-0.239,7.39,1.332,10.745,4.638
			c1.935-1.867,5.75-4.935,9.968-4.807c2.793,0.077,5.219,1.471,7.219,4.146l-2.758,2.056c-1.354-1.817-2.842-2.723-4.551-2.771
			c-3.544-0.062-7.386,3.557-8.566,4.97l-1.287,1.54l-1.323-1.511c-2.971-3.394-6.072-5.022-9.229-4.839
			C127.27,97.227,122.764,103.665,122.718,103.73z"/>
	</g>
</g>
<g>
	<g>
		<path fill="#DEDC06" d="M129.774,123.748c-3.135,0.048-6.474-0.99-9.46-4.051l2.458-2.397c6.486,6.646,14.588,0.289,14.93,0.014
			l2.154,2.672C137.735,121.705,133.937,123.683,129.774,123.748z"/>
	</g>
</g>
<g>
	<g>
		<path fill="#DEDC06" d="M154.582,122.938c-3.041,0.047-6.289-1.087-9.693-3.388l1.92-2.845c3.596,2.427,6.833,3.28,9.639,2.54
			c3.812-1.014,5.637-4.64,5.656-4.678l3.079,1.517c-0.103,0.206-2.548,5.071-7.856,6.479
			C156.431,122.799,155.517,122.924,154.582,122.938z"/>
	</g>
</g>
<g>
	<g>
		<path fill="#E20717" d="M161.414,133.268c-12.774,0.195-19.047-9.448-20.584-14.632c-0.46-1.552,0.422-3.184,1.977-3.648
			c1.548-0.459,3.177,0.419,3.645,1.966c0.145,0.473,3.49,10.814,15.209,10.44c0.019-0.001,0.034,0,0.049-0.001
			c1.602-0.024,2.931,1.236,2.979,2.837c0.052,1.619-1.218,2.975-2.837,3.028C161.708,133.261,161.562,133.265,161.414,133.268z"/>
	</g>
</g>
<g>
	<path fill="#1E1E1C" d="M141.782,127.78c2.305,1.063,3.01,4.456,1.568,7.577c-1.438,3.12-4.473,4.787-6.775,3.723
		c-2.309-1.063-3.01-4.454-1.572-7.575C136.442,128.385,139.478,126.717,141.782,127.78z"/>
</g>
<g>
	<path fill="#E20717" d="M138.593,141.265c-0.824,0.014-1.618-0.151-2.354-0.491c-1.64-0.758-2.818-2.336-3.234-4.331
		c-0.375-1.818-0.108-3.848,0.756-5.719c1.416-3.071,4.124-5.084,6.901-5.128c0.828-0.012,1.619,0.153,2.354,0.494
		c1.646,0.757,2.821,2.337,3.229,4.331c0.377,1.822,0.11,3.852-0.748,5.721C144.078,139.211,141.371,141.223,138.593,141.265z
		 M140.719,129.325c-1.07,0.016-2.643,0.95-3.573,2.961c-0.52,1.13-0.7,2.372-0.485,3.4c0.099,0.483,0.381,1.348,1.144,1.7
		c0.224,0.103,0.471,0.155,0.732,0.148c1.072-0.014,2.645-0.948,3.57-2.96c0.523-1.133,0.705-2.371,0.488-3.398
		c-0.1-0.485-0.382-1.351-1.141-1.702C141.228,129.372,140.98,129.32,140.719,129.325z"/>
</g>
<circle fill="#E20717" cx="130.247" cy="111.498" r="4.245"/>
<circle fill="#E20717" cx="154.594" cy="110.991" r="4.246"/>
</svg>
