<?xml version="1.0" encoding="utf-8"?>
<!-- Generator: Adobe Illustrator 16.0.0, SVG Export Plug-In . SVG Version: 6.00 Build 0)  -->
<!DOCTYPE svg PUBLIC "-//W3C//DTD SVG 1.1//EN" "http://www.w3.org/Graphics/SVG/1.1/DTD/svg11.dtd">
<svg version="1.1" id="Layer_1" xmlns="http://www.w3.org/2000/svg" xmlns:xlink="http://www.w3.org/1999/xlink" x="0px" y="0px"
	 width="283.46px" height="283.46px" viewBox="0 0 283.46 283.46" enable-background="new 0 0 283.46 283.46" xml:space="preserve">
<path fill="#DEDC06" d="M193.788,250.048c0,0,6.838-17.153,5.359-54.417c-1.003-25.292-15.803-33.885-17.18-52.347
	c-2.367-31.745-0.8-29.886,6.656-44.021C245.542-8.633,145.701-12.706,145.701,32.72c0,37.246-20.102,36.084-32.453,38.189
	C94.87,74.04,73.753,83.495,54.235,116.5c-15.154,25.626-17.153,54.583-10.646,80.609c6.506,26.025,2.727,32.426-5.915,48.206
	c-6.802,12.421,5.62,25.652,22.181,14.786c17.091-11.212,24.842-5.354,34.306,2.958c9.463,8.311,24.156,4.321,28.687-2.366
	c6.21-9.168,23.545-14.491,33.896,0.591C163.94,271.772,187.115,272.992,193.788,250.048z"/>
<path fill="#DEDC06" d="M182.8,35.79"/>
<g>
	<path fill="#FFFFFF" d="M202.143,36.467c0,0-8.19,13.505-20.822,13.505c-11.937,0-21.003-13.505-21.003-13.505
		s8.37-13.503,21.003-13.503C195.694,22.964,202.143,36.467,202.143,36.467z"/>
	<circle fill="#E30613" cx="182.865" cy="37.25" r="10.131"/>
</g>
<path fill="#DEDC06" d="M168.999,118.502c1.49,0.361,26.584,2.838,33.28-11.768c6.695-14.605,20.24-12.728,22.932-1.568l1.08,8.741
	l-3.523-2.432l0.041,3.603l-2.93-3.176l-0.98,4.045l-2.616-2.825c0,0-21.427,32.607-43.638,17.308L168.999,118.502z"/>
<path fill="#DEDC06" d="M172.156,138.393c1.195,0.961,22.86,13.863,35.126,3.484c12.265-10.375,23.73-2.922,21.427,8.324
	l-2.735,8.37l-2.158-3.698l-1.493,3.28l-1.302-4.12l-2.607,3.245l-1.168-3.668c0,0-33.25,20.416-46.857-2.871L172.156,138.393z"/>
<ellipse fill="#E30613" cx="177.929" cy="71.991" rx="17.612" ry="15.965"/>
<g>
	<g>
		<polygon fill="#FFFFFF" points="185.908,62.02 187.716,67.825 189.806,62.02 		"/>
	</g>
	<g>
		<polygon fill="#FFFFFF" points="181.695,62.02 183.503,67.825 185.593,62.02 		"/>
	</g>
	<g>
		<polygon fill="#FFFFFF" points="177.482,62.02 179.29,67.825 181.381,62.02 		"/>
	</g>
	<g>
		<polygon fill="#FFFFFF" points="173.271,62.02 175.077,67.825 177.169,62.02 		"/>
	</g>
	<g>
		<polygon fill="#FFFFFF" points="169.058,62.02 170.865,67.825 172.955,62.02 		"/>
	</g>
	<g>
		<polygon fill="#FFFFFF" points="164.845,62.02 166.652,67.825 168.743,62.02 		"/>
	</g>
</g>
<g>
	<g>
		<polygon fill="#FFFFFF" points="185.801,81.93 187.607,76.125 189.699,81.93 		"/>
	</g>
	<g>
		<polygon fill="#FFFFFF" points="181.588,81.93 183.395,76.125 185.487,81.93 		"/>
	</g>
	<g>
		<polygon fill="#FFFFFF" points="177.376,81.93 179.183,76.125 181.273,81.93 		"/>
	</g>
	<g>
		<polygon fill="#FFFFFF" points="173.163,81.93 174.97,76.125 177.062,81.93 		"/>
	</g>
	<g>
		<polygon fill="#FFFFFF" points="168.95,81.93 170.757,76.125 172.848,81.93 		"/>
	</g>
	<g>
		<polygon fill="#FFFFFF" points="164.737,81.93 166.545,76.125 168.636,81.93 		"/>
	</g>
</g>
<path fill="#F1ACCD" d="M164.187,62.02h27.485c-3.228-3.651-8.18-5.995-13.743-5.995S167.414,58.369,164.187,62.02z"/>
<path fill="#F1ACCD" d="M164.16,81.93c3.227,3.668,8.19,6.026,13.769,6.026s10.542-2.357,13.769-6.026H164.16z"/>
<ellipse fill="none" cx="177.929" cy="71.991" rx="17.612" ry="15.965"/>
<path fill="none" stroke="#FFFFFF" stroke-width="5" stroke-linecap="round" stroke-miterlimit="10" d="M62.516,133.781
	c0,0-15.083,29.977-7.098,64.822"/>
<path fill="none" stroke="#FFFFFF" stroke-width="5" stroke-linecap="round" stroke-miterlimit="10" d="M190.571,229.012
	c0,0-0.035,24.842-10.221,27.503"/>
<path fill="none" stroke="#FFFFFF" stroke-width="5" stroke-linecap="round" stroke-miterlimit="10" d="M161.884,14.009
	c0,0-10.056,7.394-9.76,16.562"/>
<path fill="none" stroke="#FFFFFF" stroke-width="5" stroke-linecap="round" stroke-miterlimit="10" d="M124.917,226.487
	c0,0,6.506,19.086-6.506,27.663"/>
</svg>
