<?xml version="1.0" encoding="utf-8"?>
<!-- Generator: Adobe Illustrator 16.0.0, SVG Export Plug-In . SVG Version: 6.00 Build 0)  -->
<!DOCTYPE svg PUBLIC "-//W3C//DTD SVG 1.1//EN" "http://www.w3.org/Graphics/SVG/1.1/DTD/svg11.dtd">
<svg version="1.1" id="Layer_1" xmlns="http://www.w3.org/2000/svg" xmlns:xlink="http://www.w3.org/1999/xlink" x="0px" y="0px"
	 width="283.46px" height="283.46px" viewBox="0 0 283.46 283.46" enable-background="new 0 0 283.46 283.46" xml:space="preserve">
<path fill="#DEDC06" d="M197.828,239.876c0,0,5.573-13.98,4.368-44.351c-0.816-20.611,3.934-21.949,2.742-43.309
	c-1.815-32.524-32.62-44.325-29.988-67.945c9.227-82.793-56.411-64.34-51.701-27.619c6.013,46.888-15.256,41.867-35.784,65.239
	c-16.011,18.23-17.35,53.629-12.047,74.839c5.302,21.211,2.222,26.427-4.82,39.288c-5.543,10.122,4.58,20.907,18.077,12.05
	c13.929-9.137,20.246-4.362,27.959,2.412c7.712,6.772,19.687,3.521,23.38-1.93c5.061-7.472,19.188-11.81,27.624,0.482
	C173.503,257.581,192.391,258.574,197.828,239.876z"/>
<path fill="#DEDC06" d="M156.3,59.414"/>
<g>
	<path fill="#FFFFFF" d="M169.619,59.965c0,0-6.675,11.006-16.97,11.006c-9.729,0-17.118-11.006-17.118-11.006
		s6.822-11.004,17.118-11.004C164.363,48.961,169.619,59.965,169.619,59.965z"/>
	<circle fill="#E30613" cx="153.908" cy="60.604" r="8.257"/>
</g>
<path fill="#DEDC06" d="M117.572,126.31c-1.329-0.799-21.137-16.834-15.584-32.093c5.554-15.259-5.522-23.526-15.381-17.41
	l-6.983,5.521l4.262,0.752l-2.588,2.562l4.363-0.204l-2.167,3.606l3.887-0.175c0,0-7.737,38.668,19.102,43.433L117.572,126.31z"/>
<path fill="#DEDC06" d="M174.95,130.48c1.434-0.649,23.277-14.52,19.452-30.557c-3.826-16.034,8.308-23.086,17.539-15.77
	l6.401,6.379l-4.387,0.264l2.312,2.887l-4.376-0.717l1.766,3.891l-3.899-0.627c0,0,3.308,39.902-24.32,41.583L174.95,130.48z"/>
<ellipse fill="#E30613" cx="152.33" cy="88.917" rx="14.354" ry="13.012"/>
<g>
	<g>
		<polygon fill="#FFFFFF" points="158.833,80.791 160.307,85.522 162.01,80.791 		"/>
	</g>
	<g>
		<polygon fill="#FFFFFF" points="155.399,80.791 156.873,85.522 158.576,80.791 		"/>
	</g>
	<g>
		<polygon fill="#FFFFFF" points="151.966,80.791 153.439,85.522 155.144,80.791 		"/>
	</g>
	<g>
		<polygon fill="#FFFFFF" points="148.533,80.791 150.006,85.522 151.711,80.791 		"/>
	</g>
	<g>
		<polygon fill="#FFFFFF" points="145.1,80.791 146.573,85.522 148.276,80.791 		"/>
	</g>
	<g>
		<polygon fill="#FFFFFF" points="141.667,80.791 143.14,85.522 144.844,80.791 		"/>
	</g>
</g>
<g>
	<g>
		<polygon fill="#FFFFFF" points="158.745,97.018 160.218,92.287 161.923,97.018 		"/>
	</g>
	<g>
		<polygon fill="#FFFFFF" points="155.312,97.018 156.784,92.287 158.49,97.018 		"/>
	</g>
	<g>
		<polygon fill="#FFFFFF" points="151.88,97.018 153.352,92.287 155.056,97.018 		"/>
	</g>
	<g>
		<polygon fill="#FFFFFF" points="148.446,97.018 149.918,92.287 151.623,97.018 		"/>
	</g>
	<g>
		<polygon fill="#FFFFFF" points="145.013,97.018 146.485,92.287 148.188,97.018 		"/>
	</g>
	<g>
		<polygon fill="#FFFFFF" points="141.579,97.018 143.053,92.287 144.756,97.018 		"/>
	</g>
</g>
<path fill="#F1ACCD" d="M141.13,80.791h22.4c-2.63-2.975-6.666-4.885-11.2-4.885S143.761,77.816,141.13,80.791z"/>
<path fill="#F1ACCD" d="M141.108,97.018c2.63,2.99,6.676,4.911,11.222,4.911s8.592-1.921,11.221-4.911H141.108z"/>
<ellipse fill="none" cx="152.33" cy="88.917" rx="14.354" ry="13.012"/>
<path fill="none" stroke="#FFFFFF" stroke-width="3" stroke-linecap="round" stroke-miterlimit="10" d="M195.189,160.944
	c0,0-1.816-27.209-18.047-51.405"/>
<path fill="none" stroke="#FFFFFF" stroke-width="3" stroke-linecap="round" stroke-miterlimit="10" d="M192.7,225.273
	c0,0-0.028,20.246-8.33,22.416"/>
<path fill="none" stroke="#FFFFFF" stroke-width="3" stroke-linecap="round" stroke-miterlimit="10" d="M139.254,38.849
	c0,0-8.196,6.025-7.955,13.498"/>
<path fill="none" stroke="#FFFFFF" stroke-width="3" stroke-linecap="round" stroke-miterlimit="10" d="M132.629,225.209
	c0,0,5.302,15.555-5.303,22.545"/>
</svg>
