<?xml version="1.0" encoding="utf-8"?>
<!-- Generator: Adobe Illustrator 16.0.0, SVG Export Plug-In . SVG Version: 6.00 Build 0)  -->
<!DOCTYPE svg PUBLIC "-//W3C//DTD SVG 1.1//EN" "http://www.w3.org/Graphics/SVG/1.1/DTD/svg11.dtd">
<svg version="1.1" id="Layer_1" xmlns="http://www.w3.org/2000/svg" xmlns:xlink="http://www.w3.org/1999/xlink" x="0px" y="0px"
	 width="283.46px" height="283.46px" viewBox="0 0 283.46 283.46" enable-background="new 0 0 283.46 283.46" xml:space="preserve">
<g>
	<path fill="#39A8E0" d="M201.779,161.694c2.201-1.23,4.799-1.843,7.504-1.62c5.006,0.412,9.125,3.578,10.998,7.872
		c17.189,1.202,26.664,42.035,26.664,42.035l-7.643,3.11c-17.656-11.272-24.219-21.056-26.549-27.523
		c-1.746,0.644-3.654,0.931-5.641,0.769c-1.682-0.141-3.262-0.588-4.693-1.291c-3.467,3.914-8.658,6.198-14.26,5.735
		c-0.771-0.063-1.525-0.178-2.262-0.353c-4.016,4.671-10.137,7.413-16.736,6.869c-10.938-0.902-19.082-10.514-18.178-21.449
		c0.904-10.95,10.511-19.094,21.449-18.189c2.618,0.214,5.08,0.927,7.292,2.04c3.163-2.235,7.091-3.415,11.253-3.069
		C195.24,156.98,199.008,158.855,201.779,161.694z"/>
	<g>
		<path fill="#E20717" d="M280.523,221.497l-32.328,21.146l-16.867-25.79c-2.256-3.447-1.289-8.066,2.156-10.32l9.156-5.989
			c3.447-2.254,8.078-1.294,10.33,2.15l8.545,13.061C268.283,212.844,276.363,215.134,280.523,221.497z"/>
		<path fill="#DEDC06" d="M282.07,220.485c0.869,1.328,0.605,3.04-0.588,3.82l-31.104,20.343c-1.195,0.781-2.869,0.337-3.736-0.989
			l0,0c-0.869-1.327-0.604-3.037,0.59-3.819l31.104-20.342C279.529,218.715,281.203,219.158,282.07,220.485L282.07,220.485z"/>
		<circle fill="#39A8E0" cx="246.148" cy="215.892" r="5.664"/>
	</g>
</g>
<path fill="#39A8E0" d="M204.521,80.055c0.967-2.546,2.553-4.905,4.724-6.828c5.381-4.773,12.873-5.622,18.999-2.764
	c7.301-12.168,26.458-23.033,26.458-23.033s8.248,6.501,9.298,7.686c0,0-13.134,34.759-26.453,36.374
	c-0.914,2.957-2.622,5.706-5.102,7.905c-4.8,4.257-11.288,5.394-16.973,3.548c-0.966,2.545-2.553,4.903-4.723,6.827
	c-7.226,6.405-18.276,5.742-24.683-1.482s-5.743-18.278,1.481-24.684C192.35,79.346,198.838,78.208,204.521,80.055z"/>
<path fill="#E20E1A" d="M243.78,40.341l4.755,6.591c-1.53,4.777,0.092,10.195,4.389,13.279c5.333,3.826,12.756,2.605,16.582-2.728
	c1.244-1.737,1.945-3.693,2.154-5.676l7.055-5.332c0.999-0.755,1.198-2.184,0.44-3.184c-0.142-0.188-0.306-0.347-0.488-0.477
	c-0.786-0.567-1.881-0.582-2.694,0.035l-4.932,3.726c-0.081-0.229-0.177-0.453-0.272-0.679l5.357-5.268
	c0.896-0.879,0.905-2.317,0.028-3.215c-0.094-0.093-0.192-0.18-0.298-0.255c-0.881-0.633-2.117-0.557-2.915,0.228l-4.776,4.693
	c-0.301-0.292-0.618-0.572-0.955-0.836l3.657-5.099c0.731-1.021,0.498-2.439-0.522-3.17c-1.019-0.733-2.439-0.498-3.172,0.522
	l-4.049,5.645c-0.222-0.064-0.441-0.132-0.664-0.184l2.247-6.688c0.324-0.969-0.042-2.004-0.83-2.569
	c-0.18-0.13-0.381-0.234-0.603-0.308c-1.19-0.398-2.479,0.24-2.877,1.431l-2.705,8.054c-1.787,0.33-3.502,1.062-4.988,2.18
	l-3.396-4.707c-0.538-0.746-1.325-1.209-2.163-1.363c-0.876-0.156-1.816,0.029-2.596,0.592
	C243.021,36.686,242.679,38.814,243.78,40.341z"/>
<g>
	<path fill="#E20613" d="M165.359,134.713c0,0,0.284,16.871,0.284,24.229c0,6.447-5.446,5.482-7.647,9.746
		c-4.955,9.598-12.146,7.786-18.744,0.301c-2.784-3.159-22.823-2.946-22.823-2.946v-31.33H165.359z"/>
</g>
<g>
	<path fill="#35A8E0" d="M185.617,48.363h-15.248c-0.496,0-0.899-0.403-0.899-0.9s0.403-0.899,0.899-0.899h15.248
		c0.497,0,0.9,0.402,0.9,0.899S186.114,48.363,185.617,48.363z"/>
</g>
<g>
	<circle fill="#E20613" cx="166.777" cy="48.481" r="7.191"/>
</g>
<g>
	<path fill="#F1ABCC" d="M164.168,47.056c0-9.358-7.588-16.943-16.943-16.943c-9.356,0-16.942,7.586-16.942,16.943
		c0,0-1.736,21.959,16.942,21.959s16.943-20.976,16.943-20.976"/>
</g>
<g>
	<path fill="#FFFFFF" d="M137.919,44.981c0,0,5.058-8.83,10.116,0C148.035,44.981,142.977,52.856,137.919,44.981z"/>
</g>
<g>
	<path fill="none" d="M137.767,44.981c0,0,5.057-8.829,10.116,0C147.883,44.981,142.824,52.856,137.767,44.981z"/>
</g>
<path fill="#E20613" d="M140.454,42.29c-0.098,0-0.191,0.019-0.288,0.029c-1.377,1.147-2.247,2.662-2.247,2.662
	c0.819,1.274,1.637,2.132,2.434,2.681c0.035,0.002,0.066,0.011,0.1,0.011c1.487,0,2.693-1.205,2.693-2.691
	S141.94,42.29,140.454,42.29z"/>
<g>
	<path fill="#FFFFFF" d="M153.561,44.981c0,0,5.058-8.83,10.116,0C163.677,44.981,158.618,52.856,153.561,44.981z"/>
</g>
<path fill="#E20613" d="M156.095,42.29c-0.099,0-0.19,0.019-0.287,0.029c-1.378,1.147-2.247,2.662-2.247,2.662
	c0.818,1.274,1.637,2.132,2.435,2.681c0.034,0.002,0.065,0.011,0.1,0.011c1.486,0,2.692-1.205,2.692-2.691
	S157.581,42.29,156.095,42.29z"/>
<g>
	<g>
		<path fill="#DDDB00" d="M135.941,43.298l-1.997-1.415c0.16-0.226,3.988-5.555,9.395-5.792c2.732-0.129,5.324,1.062,7.705,3.523
			c1.724-1.306,5.525-3.771,9.205-3.369c2.006,0.219,3.672,1.229,4.953,2.998l-1.984,1.434c-0.868-1.203-1.929-1.856-3.233-1.999
			c-3.145-0.347-7.026,2.429-8.257,3.526l-0.936,0.835l-0.812-0.957c-2.08-2.45-4.273-3.647-6.523-3.548
			C139.255,38.713,135.975,43.252,135.941,43.298z"/>
	</g>
</g>
<g>
	<g>
		<path fill="#DDDB00" d="M135.941,38.754l-1.997-1.414c0.16-0.227,3.988-5.555,9.395-5.793c2.697-0.129,5.252,1.03,7.607,3.423
			c1.399-1.31,4.151-3.454,7.156-3.316c1.986,0.085,3.699,1.105,5.096,3.033l-1.985,1.435c-0.946-1.309-1.997-1.971-3.214-2.023
			c-2.523-0.083-5.302,2.453-6.158,3.447l-0.935,1.084l-0.926-1.091c-2.081-2.451-4.273-3.646-6.523-3.549
			C139.255,34.169,135.975,38.708,135.941,38.754z"/>
	</g>
</g>
<g>
	<g>
		<path fill="#DDDB00" d="M140.751,53.096c-2.236,0-4.603-0.776-6.698-2.989l1.778-1.682c4.548,4.807,10.393,0.365,10.639,0.173
			l1.506,1.928C146.447,51.728,143.718,53.096,140.751,53.096z"/>
	</g>
</g>
<g>
	<g>
		<path fill="#DDDB00" d="M158.438,52.791c-2.167,0-4.47-0.844-6.872-2.521l1.401-2.006c2.534,1.769,4.833,2.413,6.838,1.915
			c2.731-0.681,4.069-3.245,4.084-3.271l2.178,1.114c-0.073,0.146-1.87,3.586-5.671,4.531
			C159.758,52.712,159.105,52.791,158.438,52.791z"/>
	</g>
</g>
<g>
	<path fill="#35A8E0" d="M141.589,19.386c-13.968,0-25.292,12.415-25.292,27.729v30.656h50.584V47.115
		C166.881,31.801,155.556,19.386,141.589,19.386z M147.225,69.015c-18.68,0-16.944-21.959-16.944-21.959
		c0-9.358,7.586-16.943,16.944-16.943c9.355,0,16.943,7.586,16.943,16.943v0.983C164.168,48.041,165.902,69.015,147.225,69.015z"/>
</g>
<g>
	<circle fill="#E20613" cx="120.264" cy="49.781" r="7.191"/>
</g>
<g>
	<g>
		<path fill="#E20613" d="M164.342,59.712c-8.381,0-12.398-6.389-13.355-9.805c-0.287-1.022,0.309-2.084,1.334-2.372
			c1.02-0.286,2.079,0.308,2.369,1.326c0.091,0.312,2.182,7.129,9.871,7.001c0.014,0,0.023,0,0.033,0c1.05,0,1.907,0.84,1.925,1.891
			c0.018,1.062-0.828,1.938-1.892,1.958C164.533,59.711,164.438,59.712,164.342,59.712z"/>
	</g>
</g>
<g>
	<path fill="#35A8E0" d="M119.233,50.68h-15.248c-0.497,0-0.9-0.402-0.9-0.899s0.403-0.899,0.9-0.899h15.248
		c0.497,0,0.899,0.402,0.899,0.899S119.73,50.68,119.233,50.68z"/>
</g>
<g>
	<circle fill="#35A8E0" cx="100.446" cy="49.733" r="3.855"/>
</g>
<g>
	<circle fill="#35A8E0" cx="185.619" cy="47.463" r="3.855"/>
</g>
<g>
	
		<ellipse transform="matrix(0.4325 -0.9016 0.9016 0.4325 30.6028 167.7721)" fill="#1D1D1B" cx="148.58" cy="59.575" rx="4.081" ry="3.015"/>
</g>
<g>
	<path fill="#E20613" d="M147.818,64.706c-0.541,0-1.061-0.117-1.539-0.347c-1.069-0.514-1.826-1.561-2.078-2.873
		c-0.229-1.196-0.033-2.525,0.553-3.743c0.96-2.001,2.758-3.294,4.578-3.294c0.542,0,1.061,0.116,1.539,0.347
		c1.07,0.514,1.827,1.562,2.076,2.874c0.229,1.198,0.033,2.526-0.55,3.744C151.436,63.413,149.64,64.706,147.818,64.706z
		 M149.332,56.896c-0.702,0-1.744,0.597-2.373,1.906c-0.354,0.736-0.482,1.549-0.354,2.225c0.061,0.318,0.236,0.889,0.733,1.128
		c0.146,0.069,0.307,0.105,0.479,0.105c0.703,0,1.744-0.597,2.371-1.907c0.354-0.737,0.486-1.548,0.354-2.224
		c-0.06-0.318-0.237-0.89-0.731-1.128C149.666,56.932,149.505,56.896,149.332,56.896z"/>
</g>
<g>
	<path fill="#35A8E0" d="M185.238,132.047c0,5.405-5.818,9.788-12.988,9.788h-62.113c-7.173,0-12.988-4.383-12.988-9.788V85.311
		c0-5.405,5.814-9.787,12.988-9.787h62.113c7.17,0,12.988,4.383,12.988,9.787V132.047z"/>
</g>
<g>
	<path fill="#E20613" d="M185.238,87.024c6.288,0,11.389,5.1,11.389,11.391s-5.101,11.391-11.389,11.391V87.024z"/>
</g>
<g>
	<circle fill="#E20613" cx="153.66" cy="114.172" r="2.888"/>
</g>
<g>
	<circle fill="#E20613" cx="163.457" cy="114.172" r="2.888"/>
</g>
<g>
	<circle fill="#E20613" cx="173.258" cy="114.172" r="2.888"/>
</g>
<g>
	<path fill="none" d="M185.238,132.047c0,5.405-5.818,9.788-12.988,9.788h-62.113c-7.173,0-12.988-4.383-12.988-9.788V85.311
		c0-5.405,5.814-9.787,12.988-9.787h62.113c7.17,0,12.988,4.383,12.988,9.787V132.047z"/>
</g>
<g>
	<path fill="#F1ABCC" d="M110.016,130.122H96.842v-1.8h12.274v-10.898c0-0.496,0.402-0.899,0.899-0.899h13.34v-14.764h1.799v15.663
		c0,0.497-0.403,0.9-0.9,0.9h-13.339v10.898C110.916,129.719,110.513,130.122,110.016,130.122z"/>
</g>
<g>
	<path fill="#F1ABCC" d="M147.675,94.032h-1.8V81.218c0-0.497,0.403-0.899,0.9-0.899h24.492v-4.666h1.8v5.565
		c0,0.496-0.403,0.899-0.899,0.899h-24.493V94.032z"/>
</g>
<g>
	<path fill="#F1ABCC" d="M144.109,139.479h-24.876c-0.497,0-0.9-0.402-0.9-0.899v-12.524h-8.317v-1.8h9.217
		c0.497,0,0.899,0.403,0.899,0.899v12.525h23.076v-8.457c0-0.497,0.403-0.9,0.9-0.9h23.793v-6.22c0-0.496,0.402-0.899,0.899-0.899
		h16.722v1.8h-15.822v6.22c0,0.496-0.402,0.899-0.899,0.899h-23.793v8.457C145.009,139.076,144.605,139.479,144.109,139.479z"/>
</g>
<g>
	<path fill="#F1ABCC" d="M126.443,92.201h-1.799v-6.745h-12.545c-0.497,0-0.899-0.402-0.899-0.899V75.47h1.799v8.187h12.545
		c0.497,0,0.899,0.403,0.899,0.9V92.201z"/>
</g>
<g>
	<path fill="#E20613" d="M170.559,141.886h-1.799v-4.645h-16.982c-0.496,0-0.899-0.403-0.899-0.899v-12.526h-20.423
		c-0.497,0-0.9-0.402-0.9-0.899V104h1.8v18.017h20.422c0.497,0,0.9,0.402,0.9,0.899v12.525h16.981c0.497,0,0.899,0.403,0.899,0.9
		V141.886z"/>
</g>
<g>
	<rect x="112.874" y="88.947" fill="#DDDB00" width="66.709" height="16.884"/>
</g>
<g>
	<path fill="#DDDB00" d="M149.131,20.601c0,2.246-2.731,4.068-6.102,4.068c-3.37,0-6.103-1.822-6.103-4.068l6.103-13.912
		L149.131,20.601z"/>
</g>
<g>
	<rect x="115.868" y="147.379" fill="none" width="57.298" height="10.172"/>
</g>
<g>
	<rect x="115.868" y="147.379" fill="#DDDB00" width="49.775" height="10.172"/>
</g>
<g>
	<rect x="115.868" y="147.379" fill="none" width="57.298" height="10.172"/>
</g>
<g>
	<rect x="118.627" y="144.117" fill="#E20613" width="1.799" height="17.696"/>
</g>
<g>
	<rect x="115.868" y="147.379" fill="none" width="57.298" height="10.172"/>
</g>
<g>
	<rect x="125.744" y="144.117" fill="#E20613" width="1.799" height="17.696"/>
</g>
<g>
	<rect x="115.868" y="147.379" fill="none" width="57.298" height="10.172"/>
</g>
<g>
	<rect x="132.861" y="144.117" fill="#E20613" width="1.8" height="17.696"/>
</g>
<g>
	<rect x="115.868" y="147.379" fill="none" width="57.298" height="10.172"/>
</g>
<g>
	<rect x="139.978" y="144.117" fill="#E20613" width="1.8" height="17.696"/>
</g>
<g>
	<rect x="115.868" y="147.379" fill="none" width="57.298" height="10.172"/>
</g>
<g>
	<rect x="147.094" y="144.117" fill="#E20613" width="1.8" height="17.696"/>
</g>
<g>
	<rect x="115.868" y="147.379" fill="none" width="57.298" height="10.172"/>
</g>
<g>
	<rect x="154.213" y="144.117" fill="#E20613" width="1.8" height="17.696"/>
</g>
<g>
	<rect x="115.868" y="147.379" fill="none" width="57.298" height="10.172"/>
</g>
<g>
	<rect x="161.328" y="144.117" fill="#E20613" width="1.799" height="17.696"/>
</g>
<g>
	<rect x="115.868" y="147.379" fill="none" width="57.298" height="10.172"/>
</g>
<g>
	<circle fill="#1D1D1B" cx="151.73" cy="152.644" r="6.888"/>
</g>
<g>
	<path fill="#1D1D1B" d="M141.589,100.255c0,0.893-0.882,1.616-1.968,1.616h-21.354c-1.087,0-1.969-0.724-1.969-1.616v-5.733
		c0-0.892,0.882-1.613,1.969-1.613h21.354c1.086,0,1.968,0.723,1.968,1.613V100.255z"/>
</g>
<g>
	<circle fill="#E20613" cx="99.054" cy="98.415" r="11.433"/>
</g>
<path fill="#39A8E0" d="M86.788,119.667c0.212,2.715-0.217,5.525-1.361,8.19c-2.832,6.611-9.248,10.574-16.008,10.601
	c-1.416,14.119-14.112,32.114-14.112,32.114s-10.233-2.364-11.688-2.987c0,0-2.938-37.042,8.42-44.181
	c-0.433-3.064-0.06-6.279,1.246-9.325c2.527-5.897,7.91-9.692,13.839-10.446c-0.211-2.714,0.22-5.523,1.361-8.189
	c3.806-8.875,14.084-12.987,22.959-9.183s12.989,14.085,9.184,22.96C98.101,115.12,92.716,118.916,86.788,119.667z"/>
<path fill="#E20E1A" d="M65.215,172.329l-7.111-3.934c-0.653-4.975-4.43-9.185-9.631-10.142c-6.455-1.188-12.649,3.083-13.836,9.538
	c-0.386,2.102-0.186,4.17,0.471,6.052L31,181.674c-0.582,1.11-0.154,2.486,0.958,3.069c0.208,0.108,0.425,0.183,0.645,0.222
	c0.953,0.178,1.949-0.275,2.423-1.179l2.873-5.473c0.171,0.171,0.354,0.333,0.535,0.498l-2.599,7.048
	c-0.436,1.179,0.168,2.483,1.345,2.92c0.125,0.046,0.251,0.08,0.378,0.104c1.067,0.197,2.153-0.397,2.54-1.449l2.319-6.281
	c0.396,0.137,0.803,0.254,1.22,0.351l-1.134,6.172c-0.226,1.233,0.59,2.417,1.824,2.644c1.235,0.229,2.419-0.59,2.646-1.823
	l1.257-6.833c0.228-0.037,0.456-0.068,0.68-0.117l0.819,7.008c0.119,1.017,0.891,1.795,1.846,1.971
	c0.218,0.041,0.444,0.05,0.677,0.021c1.246-0.146,2.138-1.273,1.992-2.521l-0.987-8.438c1.476-1.061,2.715-2.453,3.583-4.099
	l5.078,2.81c0.804,0.446,1.713,0.53,2.536,0.311c0.86-0.232,1.631-0.8,2.096-1.642C67.46,175.313,66.863,173.24,65.215,172.329z"/>
<g>
	<path fill="#39A8E0" d="M125.739,216.435c0.207,2.514-0.312,5.131-1.636,7.501c-2.451,4.385-7.039,6.82-11.723,6.745
		c-8.221,15.144-49.306,6.837-49.306,6.837l0.336-8.243c17.578-11.395,29.202-13.311,36.054-12.749
		c0.138-1.856,0.667-3.712,1.639-5.452c0.825-1.472,1.887-2.725,3.121-3.736c-2.126-4.777-2.051-10.449,0.692-15.354
		c0.378-0.676,0.793-1.314,1.258-1.912c-2.585-5.59-2.543-12.297,0.688-18.077c5.355-9.579,17.479-13.006,27.056-7.65
		c9.589,5.363,13.018,17.481,7.66,27.061c-1.28,2.294-2.949,4.238-4.879,5.79c0.723,3.805,0.167,7.869-1.873,11.513
		C132.74,212.439,129.471,215.09,125.739,216.435z"/>
	<g>
		<path fill="#E20717" d="M38.672,263.301l-5.839-38.187l30.462-4.656c4.071-0.624,7.874,2.171,8.497,6.241l1.654,10.815
			c0.623,4.071-2.17,7.887-6.24,8.509l-15.427,2.361C51.621,255.75,46.188,262.152,38.672,263.301z"/>
		<path fill="#DEDC06" d="M38.952,265.127c-1.568,0.241-3.018-0.708-3.232-2.118l-5.618-36.738c-0.215-1.411,0.883-2.751,2.449-2.99
			l0,0c1.568-0.24,3.014,0.711,3.231,2.12l5.616,36.739C41.616,263.55,40.52,264.889,38.952,265.127L38.952,265.127z"/>
		<circle fill="#39A8E0" cx="58.024" cy="234.343" r="5.663"/>
	</g>
</g>
</svg>
