<?xml version="1.0" encoding="utf-8"?>
<!-- Generator: Adobe Illustrator 16.0.0, SVG Export Plug-In . SVG Version: 6.00 Build 0)  -->
<!DOCTYPE svg PUBLIC "-//W3C//DTD SVG 1.1//EN" "http://www.w3.org/Graphics/SVG/1.1/DTD/svg11.dtd">
<svg version="1.1" id="Layer_1" xmlns="http://www.w3.org/2000/svg" xmlns:xlink="http://www.w3.org/1999/xlink" x="0px" y="0px"
	 width="283.46px" height="283.46px" viewBox="0 0 283.46 283.46" enable-background="new 0 0 283.46 283.46" xml:space="preserve">
<path fill="#F1ABCD" d="M106.034,46.813c-11.411,0-20.905,8.185-22.947,19.001c-2.183-1.697-4.918-2.718-7.897-2.718
	c-7.118,0-12.889,5.771-12.889,12.89c0,7.118,5.771,12.889,12.889,12.889c2.305,0,4.464-0.613,6.337-1.673
	c1.87,12.491,3.399,36.141-5.038,62.987c-1.904,6.059,1.464,12.514,7.523,14.418c1.147,0.361,2.309,0.533,3.451,0.533
	c4.889,0,9.424-3.145,10.968-8.055c7.931-25.237,8.353-47.88,7.012-63.57c0.197,0.005,0.393,0.015,0.591,0.015
	c12.9,0,23.359-10.458,23.359-23.359S118.935,46.813,106.034,46.813z M106.702,74.04c-2.686,0-4.863-2.177-4.863-4.863
	s2.177-4.863,4.863-4.863s4.863,2.177,4.863,4.863S109.387,74.04,106.702,74.04z"/>
<g>
	<g>
		<path fill="#F1ABCD" d="M138.876,132.901c3.312-6.26,5.013-13,6.53-19.878c0.893-4.054,1.498-8.486,3.606-12.118
			c0.919-1.584,2.214,4.826,2.265,5.355c0.223,2.307,0.121,4.652-0.016,6.961c-0.422,7.09-2.275,13.944-3.984,20.805
			c-0.78,3.13,4.041,4.457,4.82,1.33c2.053-8.242,4.047-16.43,4.287-24.954c0.131-4.677-0.016-12.167-5.039-14.448
			c-5.435-2.469-7.904,4.497-9.048,8.406c-2.567,8.762-3.392,17.805-7.738,26.018C133.052,133.225,137.368,135.751,138.876,132.901
			L138.876,132.901z"/>
	</g>
</g>
<g>
	<g>
		<path fill="#F1ABCD" d="M139.44,120.636c2.969-1.605,5.989-2.817,9.253-3.67c3.176-0.829,6.436-0.427,9.648-0.979
			c3.174-0.546,1.824-5.364-1.33-4.822c-3.689,0.635-7.244,0.353-10.927,1.314c-3.202,0.836-6.269,2.271-9.168,3.84
			C134.081,117.854,136.604,122.17,139.44,120.636L139.44,120.636z"/>
	</g>
</g>
<g>
	<g>
		<path fill="#F1ABCD" d="M164.254,101.02c1.338,9.512-2.162,18.485-2.416,27.856c-0.207,7.629,7.564,5.345,11.977,3.566
			c2.951-1.19,1.664-6.028-1.33-4.822c-1.145,0.462-5.506,2.751-5.646,1.256c-0.256-2.719,0.836-6.113,1.242-8.798
			c1.035-6.829,1.965-13.493,0.996-20.388C168.629,96.509,163.811,97.868,164.254,101.02L164.254,101.02z"/>
	</g>
</g>
<g>
	<g>
		<path fill="#F1ABCD" d="M178.637,98.111c0.207,9.163-0.93,18.281-0.873,27.431c0.049,7.749,6.818,5.558,11.77,4.406
			c3.139-0.731,1.807-5.552-1.33-4.822c-0.842,0.196-5.264,2.239-5.439,0.416c-0.234-2.439,0.162-5.14,0.27-7.574
			c0.293-6.623,0.754-13.223,0.604-19.857C183.564,94.892,178.564,94.885,178.637,98.111L178.637,98.111z"/>
	</g>
</g>
<g>
	<g>
		<path fill="#F1ABCD" d="M198.348,98.36c0.854,9.925-1.541,19.754-4.15,29.26c-0.855,3.115,3.969,4.435,4.822,1.33
			c2.715-9.894,5.217-20.26,4.328-30.59C203.074,95.173,198.072,95.146,198.348,98.36L198.348,98.36z"/>
	</g>
</g>
<g>
	<g>
		<path fill="#F1ABCD" d="M223.211,103.612c2.205-4.831-2.512-6.78-6.678-6.02c-5.838,1.065-9.008,7.082-9.582,12.588
			c-0.447,4.303-1.025,12.81,3.363,15.525c5.443,3.37,11.627-0.556,14.641-5.385c1.715-2.743-2.613-5.251-4.316-2.523
			c-1.15,1.842-5.809,6.576-7.887,3.147c-1.303-2.15-1.049-5.566-1.01-7.983c0.043-2.619,0.619-5.041,1.812-7.374
			c0.562-1.098,1.592-2.377,2.789-2.834c0.543-0.176,1.102-0.288,1.672-0.335c0.963,0.248,1.256-0.195,0.879-1.329
			C217.564,103.999,221.873,106.542,223.211,103.612L223.211,103.612z"/>
	</g>
</g>
<g>
	<g>
		<path fill="#F1ABCD" d="M148.967,144.83c-10.315-6.407-20.621,16.221-12.675,22.711c6.067,4.953,12.058-2.58,14.726-7.383
			c2.762-4.973,6.037-15.014-1.65-17.326c-3.096-0.931-4.408,3.896-1.328,4.822c5.393,1.621-5.697,19.951-8.774,15.861
			c-2.51-3.336,2.533-17.252,7.178-14.369C149.191,150.854,151.699,146.527,148.967,144.83L148.967,144.83z"/>
	</g>
</g>
<g>
	<g>
		<path fill="#F1ABCD" d="M171.064,138.593c-4.533-1.324-11.395,1.287-11.195,6.948c0.104,2.947,1.365,5.273,2.664,7.863
			c1.127,2.25,0.756,9.141-3.086,6.031c-2.48-2.008-6.041,1.506-3.535,3.535c4.051,3.279,9.268,3.193,11.408-2.199
			c0.959-2.416,1.025-4.838,0.52-7.365c-0.328-1.641-1.338-3.23-2.09-4.695c-1.734-3.387,0.34-6.361,3.984-5.295
			C172.836,144.322,174.152,139.497,171.064,138.593L171.064,138.593z"/>
	</g>
</g>
<g>
	<g>
		<path fill="#F1ABCD" d="M188.854,136.758c-4.371-0.039-10.129-0.162-11.906,4.802c-1.719,4.803-1.393,10.694-1.783,15.778
			c-0.303,3.932,0.02,8.408,4.678,8.938c4.014,0.455,8.461-3.885,11.52-5.906c2.676-1.77,0.174-6.102-2.523-4.316
			c-2.014,1.33-3.934,2.775-6.01,4.01c-0.668,0.395-1.365,0.729-2.092,1.002c-0.957,0.48-1.158,0.32-0.604-0.477
			c-0.168-1.432,0.006-2.934,0.117-4.363c0.201-2.619,0.512-5.215,0.619-7.842c0.09-2.145-0.172-5.515,2.529-6.369
			c1.65-0.521,3.74-0.271,5.455-0.256C192.078,141.787,192.076,136.787,188.854,136.758L188.854,136.758z"/>
	</g>
</g>
<g>
	<g>
		<path fill="#F1ABCD" d="M180.887,154.883c2.4-1.207,4.74-2.51,6.982-3.99c2.678-1.766,0.178-6.098-2.523-4.316
			c-2.242,1.48-4.582,2.783-6.982,3.99C175.482,152.016,178.016,156.328,180.887,154.883L180.887,154.883z"/>
	</g>
</g>
<g>
	<g>
		<path fill="#F1ABCD" d="M111.213,167.105c2.35-8.135,4.52-16.893,10.33-23.336c-1.309-0.17-2.618-0.338-3.926-0.506
			c3.241,7.559-1.675,17.881,2.993,24.938c0.88,1.33,2.742,1.697,3.926,0.506c2.703-2.721,3.765-6.281,4.688-9.914
			c1.436-5.65,3.143-11.15,5.428-16.527c1.246-2.932-3.06-5.482-4.317-2.523c-1.961,4.615-3.653,9.296-5.044,14.117
			c-1.096,3.801-1.368,8.371-4.291,11.312c1.309,0.168,2.618,0.336,3.926,0.506c-2.066-3.125-0.967-8.236-1.272-11.84
			c-0.391-4.611,0.149-8.738-1.721-13.098c-0.625-1.459-2.936-1.604-3.926-0.506c-6.437,7.139-9.007,16.512-11.616,25.542
			C105.495,168.881,110.32,170.195,111.213,167.105L111.213,167.105z"/>
	</g>
</g>
<g>
	<g>
		<path fill="#F1ABCD" d="M113.874,101.519c0.651,4.647-0.845,9.363-1.57,13.922c-0.722,4.539-0.417,9.004-1.921,13.427
			c-1.041,3.062,3.79,4.364,4.821,1.33c1.822-5.358,1.438-10.967,2.442-16.478c0.833-4.569,1.7-8.886,1.049-13.53
			C118.249,97.008,113.432,98.367,113.874,101.519L113.874,101.519z"/>
	</g>
</g>
<g>
	<g>
		<path fill="#F1ABCD" d="M127.09,101.686c-3.853,10.203-4.561,21.777-4.079,32.585c0.143,3.211,5.144,3.225,5,0
			c-0.464-10.432,0.183-21.409,3.9-31.256C133.053,99.993,128.218,98.699,127.09,101.686L127.09,101.686z"/>
	</g>
</g>
<g>
	<g>
		<path fill="#F1ABCD" d="M109.385,118.727c6.677,1.896,13.354-0.011,20.116-0.161c3.219-0.071,3.226-5.071,0-5
			c-6.24,0.139-12.638,2.085-18.787,0.339C107.606,113.023,106.289,117.847,109.385,118.727L109.385,118.727z"/>
	</g>
</g>
<g>
	<g>
		<path fill="#FFFFFF" d="M118.012,194.022c0.636-2.845,0.654-5.794,1.27-8.649c0.353-1.634,0.921-3.488,2.359-4.485
			c2.489-1.726,3.708,1.99,2.309,3.681c-0.867,1.048-3.016,1.246-4.259,1.298c-0.72,0.03-1.056,1.021-0.378,1.397
			c2.494,1.384,4.144,3.438,4.619,6.277c0.16,0.952,1.605,0.547,1.446-0.398c-0.535-3.196-2.51-5.621-5.309-7.174
			c-0.126,0.466-0.252,0.932-0.378,1.397c2.712-0.112,5.387-0.909,6.446-3.605c0.838-2.135-1.24-5.109-3.584-4.706
			c-5.966,1.027-5.011,10.206-5.986,14.569C116.355,194.566,117.801,194.967,118.012,194.022L118.012,194.022z"/>
	</g>
</g>
<g>
	<g>
		<path fill="#FFFFFF" d="M127.864,193.881c1.608-2.806,1.48-6.321,2.874-9.24c0.227-0.476,1.254-2.205,1.418-0.918
			c0.094,0.741,0.011,1.52-0.033,2.261c-0.158,2.672-0.322,5.33-0.533,7.999c-0.077,0.965,1.424,0.958,1.5,0
			c0.073-0.921,2.033-13.359-1.269-12.351c-4.251,1.298-3.455,8.353-5.253,11.491C126.087,193.964,127.383,194.72,127.864,193.881
			L127.864,193.881z"/>
	</g>
</g>
<g>
	<g>
		<path fill="#FFFFFF" d="M126.217,189.422c2.049,0.824,4.317,0.379,6.444,0.187c0.955-0.087,0.964-1.587,0-1.5
			c-1.989,0.18-4.13,0.638-6.045-0.134C125.717,187.613,125.331,189.065,126.217,189.422L126.217,189.422z"/>
	</g>
</g>
<g>
	<g>
		<path fill="#FFFFFF" d="M135.543,183.363c2.862,0.145,5.699-0.034,8.525-0.507c0.952-0.16,0.547-1.605-0.398-1.447
			c-2.694,0.451-5.401,0.592-8.127,0.454C134.576,181.814,134.581,183.314,135.543,183.363L135.543,183.363z"/>
	</g>
</g>
<g>
	<g>
		<path fill="#FFFFFF" d="M138.502,183.134c0.543,3.375-0.155,6.735-0.96,10.009c-0.231,0.939,1.215,1.338,1.446,0.398
			c0.876-3.559,1.55-7.145,0.96-10.806C139.795,181.782,138.35,182.188,138.502,183.134L138.502,183.134z"/>
	</g>
</g>
<g>
	<g>
		<path fill="#FFFFFF" d="M152.598,181.733c-0.021,3.57-0.258,7.305-1.979,10.509c-0.458,0.853,0.837,1.609,1.295,0.758
			c1.848-3.442,2.161-7.426,2.184-11.267C154.104,180.766,152.604,180.767,152.598,181.733L152.598,181.733z"/>
	</g>
</g>
<g>
	<g>
		<path fill="#FFFFFF" d="M153.387,187.101c1.035-0.312,1.856-0.977,2.661-1.675c0.823-0.714,1.654-1.676,2.783-1.849
			c0.954-0.146,0.548-1.592-0.398-1.447c-2.256,0.347-3.335,2.888-5.444,3.523C152.064,185.933,152.459,187.38,153.387,187.101
			L153.387,187.101z"/>
	</g>
</g>
<g>
	<g>
		<path fill="#FFFFFF" d="M153.789,186.94c2.828,0.431,1.408,5.355,1.371,7.282c-0.02,0.968,1.48,0.966,1.5,0
			c0.053-2.692,1.52-8.121-2.473-8.729C153.242,185.35,152.835,186.795,153.789,186.94L153.789,186.94z"/>
	</g>
</g>
<g>
	<g>
		<path fill="#FFFFFF" d="M161.084,183.334c-0.345,3.284-1.08,6.498-1.734,9.729c-0.191,0.944,1.255,1.347,1.447,0.398
			c0.681-3.364,1.428-6.709,1.787-10.128C162.686,182.372,161.185,182.382,161.084,183.334L161.084,183.334z"/>
	</g>
</g>
<g>
	<g>
		<path fill="#FFFFFF" d="M163.763,194.281c1.737-3.396,1.748-8.547,5.015-10.939c-0.367-0.149-0.734-0.299-1.102-0.448
			c1.298,3.455-0.336,7.162,0.32,10.729c0.105,0.571,0.881,0.702,1.254,0.331c3.041-3.02,4.858-6.909,6.277-10.9
			c0.324-0.914-1.125-1.304-1.446-0.398c-1.333,3.748-3.034,7.401-5.892,10.238c0.418,0.11,0.836,0.221,1.254,0.331
			c-0.662-3.594,1.003-7.204-0.32-10.729c-0.154-0.41-0.68-0.758-1.102-0.448c-3.678,2.692-3.625,7.707-5.554,11.477
			C162.028,194.383,163.322,195.143,163.763,194.281L163.763,194.281z"/>
	</g>
</g>
<g>
	<g>
		<path fill="#FFFFFF" d="M182.049,183.411c-5.087-0.804-8.781,7.433-5.562,11.128c2.009,2.306,5.27-1,6.408-2.572
			c0.913-1.261,1.505-2.495,0.767-3.983c-0.699-1.413-3.203-0.394-4.254-0.249c-0.955,0.132-0.547,1.577,0.398,1.447
			c0.904-0.125,3.395-0.998,2.5,0.934c-0.424,0.914-1.172,1.676-1.884,2.37c-1.372,1.336-2.978,1.894-3.44-0.357
			c-0.548-2.674,1.28-7.806,4.668-7.27C182.597,185.008,183.003,183.562,182.049,183.411L182.049,183.411z"/>
	</g>
</g>
<g>
	<g>
		<path fill="#FFFFFF" d="M147.903,204.788c-0.481-1.423-1.295-2.688-1.862-4.073c-0.287-0.703-0.519-1.511-0.197-2.235
			c0.288-0.652,0.783,0.25,0.377,0.719c-1.121,1.293-3.126,1.122-4.062,2.731c-0.872,1.5,0.745,2.325,1.99,2.396
			c1.911,0.11,3.796-0.983,4.205-2.926c0.199-0.943-1.247-1.345-1.446-0.398c-0.272,1.29-1.312,1.756-2.509,1.824
			c-0.084,0.004-0.964-0.043-0.951-0.111c0.094-0.503,0.775-0.772,1.172-0.965c1.416-0.685,3.443-1.307,3.297-3.249
			c-0.165-2.189-2.328-2.552-3.368-0.778c-1.394,2.376,1.182,5.313,1.909,7.464C146.766,206.098,148.215,205.707,147.903,204.788
			L147.903,204.788z"/>
	</g>
</g>
<g>
	<g>
		<path fill="#FFFFFF" d="M99.742,219.706c1.687-2.466,2.502-5.451,4.222-7.92c1.264-1.812,0.438,2.26,0.287,2.899
			c-0.302,1.283-0.735,2.528-1.076,3.801c-0.251,0.937,1.177,1.326,1.446,0.398c0.795-2.741,3.106-6.42,6.041-7.161
			c-0.307-0.175-0.615-0.35-0.922-0.524c0.696,2.979-0.573,6.128-1.601,8.889c-0.338,0.908,1.112,1.297,1.446,0.398
			c1.137-3.052,2.369-6.401,1.601-9.686c-0.094-0.404-0.539-0.621-0.922-0.524c-3.467,0.877-6.148,4.963-7.089,8.21
			c0.482,0.133,0.964,0.266,1.446,0.398c0.395-1.472,3.405-9.078,0.155-9.262c-1.632-0.093-2.621,2.135-3.264,3.301
			c-1.079,1.955-1.804,4.181-3.066,6.024C97.899,219.749,99.199,220.499,99.742,219.706L99.742,219.706z"/>
	</g>
</g>
<g>
	<g>
		<path fill="#FFFFFF" d="M116.969,209.712c-2.12,1.389-2.996,4.229-3.262,6.621c-0.217,1.948,0.585,4.344,2.943,3.309
			c3.199-1.404,6.094-12.001,0.498-10.006c-0.904,0.323-0.515,1.772,0.398,1.447c0.68-0.242,1.282-0.416,1.382,0.461
			c0.091,0.801-0.13,1.629-0.341,2.393c-0.391,1.415-1.025,3.253-2.262,4.153c-1.536,1.119-1.174-1.528-1.032-2.374
			c0.276-1.64,0.969-3.751,2.431-4.709C118.532,210.479,117.781,209.18,116.969,209.712L116.969,209.712z"/>
	</g>
</g>
<g>
	<g>
		<path fill="#FFFFFF" d="M123.323,210.04c-0.06,1.687-2.833,8.54,0.088,9.159c4.017,0.851,6.381-6.95,6.056-9.801
			c-0.108-0.949-1.609-0.96-1.5,0c0.208,1.816-0.593,3.833-1.331,5.45c-0.179,0.394-2.492,3.944-2.888,2.687
			c-0.384-1.219,0.187-2.913,0.446-4.11c0.24-1.109,0.588-2.244,0.629-3.385C124.857,209.072,123.357,209.075,123.323,210.04
			L123.323,210.04z"/>
	</g>
</g>
<g>
	<g>
		<path fill="#FFFFFF" d="M136.203,208.675c-1.569,0.589-3.252,1.478-2.975,3.422c0.14,0.977,0.542,1.895,0.864,2.821
			c0.768,2.206-0.552,4.926-3.076,3.12c-0.789-0.564-1.536,0.737-0.757,1.295c2.297,1.644,4.841,0.63,5.562-2.068
			c0.359-1.344-0.265-2.71-0.709-3.946c-0.638-1.771-0.361-2.502,1.489-3.196C137.499,209.785,137.11,208.335,136.203,208.675
			L136.203,208.675z"/>
	</g>
</g>
<g>
	<g>
		<path fill="#FFFFFF" d="M138.695,211.16c-0.177,2.702-0.455,5.417-1.414,7.968c-0.185,0.491,0.279,0.911,0.723,0.949
			c1.675,0.143,3.401,0.022,5.003-0.508c0.913-0.303,0.522-1.752-0.398-1.447c-1.488,0.493-3.05,0.587-4.604,0.455
			c0.241,0.316,0.482,0.633,0.723,0.949c1.003-2.669,1.283-5.54,1.468-8.366C140.258,210.194,138.758,210.2,138.695,211.16
			L138.695,211.16z"/>
	</g>
</g>
<g>
	<g>
		<path fill="#FFFFFF" d="M140.245,215.272c0.854,0,1.708,0,2.562,0c0.968,0,0.968-1.5,0-1.5c-0.854,0-1.708,0-2.562,0
			C139.278,213.772,139.278,215.272,140.245,215.272L140.245,215.272z"/>
	</g>
</g>
<g>
	<g>
		<path fill="#FFFFFF" d="M140.765,211.884c0.834-0.13,1.681-0.134,2.523-0.134c0.968,0,0.968-1.5,0-1.5
			c-0.981,0-1.95,0.036-2.921,0.187c-0.405,0.063-0.623,0.563-0.524,0.923C139.96,211.787,140.362,211.946,140.765,211.884
			L140.765,211.884z"/>
	</g>
</g>
<g>
	<g>
		<path fill="#FFFFFF" d="M158.588,207.47c-3.467,1.394-6.385,3.066-7.402,6.892c-0.736,2.767,0.42,5.252,3.354,5.624
			c3.026,0.383,5.553-2.987,6.657-5.351c1.193-2.557,1.145-5.602-1.391-7.249c-0.814-0.529-1.564,0.771-0.758,1.295
			c3.752,2.438-0.354,8.604-3.409,9.695c-2.892,1.033-3.421-2.063-2.893-4.048c0.805-3.026,3.575-4.341,6.239-5.411
			C159.871,208.561,159.485,207.109,158.588,207.47L158.588,207.47z"/>
	</g>
</g>
<g>
	<g>
		<path fill="#FFFFFF" d="M156.623,215.277c0.633,1.585,1.26,3.172,1.762,4.805c0.282,0.922,1.73,0.528,1.445-0.398
			c-0.5-1.633-1.128-3.22-1.762-4.805C157.715,213.992,156.264,214.379,156.623,215.277L156.623,215.277z"/>
	</g>
</g>
<g>
	<g>
		<path fill="#FFFFFF" d="M165.109,207.994c-0.834,2.163-4.191,10.686,0.696,10.765c4.219,0.068,5.946-7.217,6.221-10.405
			c0.083-0.964-1.417-0.956-1.5,0c-0.224,2.587-1.403,7.706-4.075,8.824c-2.344,0.981-1.594-3.305-1.381-4.259
			c0.348-1.55,0.916-3.048,1.485-4.526C166.904,207.488,165.453,207.102,165.109,207.994L165.109,207.994z"/>
	</g>
</g>
<g>
	<g>
		<path fill="#FFFFFF" d="M174.396,208.154c-0.918,2.337-1.924,4.993-1.87,7.538c0.068,3.227,3.819,2.473,5.835,1.871
			c0.924-0.277,0.529-1.725-0.398-1.447c-1.014,0.304-2.107,0.674-3.179,0.517c-1.241-0.182-0.685-2.202-0.548-2.895
			c0.349-1.768,0.948-3.511,1.605-5.186C176.196,207.651,174.746,207.265,174.396,208.154L174.396,208.154z"/>
	</g>
</g>
<g>
	<g>
		<path fill="#FFFFFF" d="M173.799,212.44c1.332,0.307,2.681,0.345,4.043,0.346c0.967,0,0.967-1.5,0-1.5
			c-1.229-0.001-2.442-0.016-3.645-0.293C173.256,210.776,172.856,212.223,173.799,212.44L173.799,212.44z"/>
	</g>
</g>
<g>
	<g>
		<path fill="#FFFFFF" d="M175.76,209.744c1.087,0,2.164-0.021,3.241-0.187c0.954-0.146,0.548-1.592-0.398-1.447
			c-0.938,0.145-1.896,0.134-2.843,0.134C174.792,208.244,174.792,209.744,175.76,209.744L175.76,209.744z"/>
	</g>
</g>
<g>
	<g>
		<path fill="#FFFFFF" d="M181.734,208.513c-0.195,3.264-0.756,6.494-0.801,9.768c-0.004,0.369,0.348,0.802,0.75,0.75
			c1.28-0.165,2.512-0.362,3.723-0.825c0.895-0.342,0.506-1.793-0.398-1.447c-1.09,0.417-2.168,0.623-3.324,0.772
			c0.25,0.25,0.5,0.5,0.75,0.75c0.045-3.273,0.605-6.504,0.801-9.768C183.293,207.546,181.793,207.552,181.734,208.513
			L181.734,208.513z"/>
	</g>
</g>
<g>
	<g>
		<path fill="#FFFFFF" d="M182.766,213.4c1.021,0.316,2.106,0.371,3.121,0c0.9-0.33,0.512-1.78-0.398-1.447
			c-0.784,0.288-1.533,0.245-2.324,0C182.238,211.667,181.846,213.114,182.766,213.4L182.766,213.4z"/>
	</g>
</g>
<g>
	<g>
		<path fill="#FFFFFF" d="M182.605,209.558c1.012,0.144,2.035,0.017,3.043,0.16c0.404,0.058,0.803-0.093,0.922-0.524
			c0.098-0.355-0.118-0.864-0.523-0.923c-1.012-0.144-2.035-0.017-3.043-0.16c-0.404-0.058-0.803,0.093-0.922,0.524
			C181.984,208.99,182.2,209.499,182.605,209.558L182.605,209.558z"/>
	</g>
</g>
<g>
	<g>
		<path fill="#FFFFFF" d="M188.812,218c0.723-2.889,2.285-5.429,3.447-8.146c-0.457-0.061-0.914-0.12-1.371-0.18
			c1.035,2.993,0.46,6.237,1.837,9.146c0.208,0.439,0.86,0.476,1.178,0.151c2.299-2.35,2.483-6.403,3.075-9.458
			c0.184-0.944-1.263-1.348-1.446-0.398c-0.528,2.727-0.646,6.708-2.689,8.796c0.393,0.051,0.785,0.102,1.178,0.151
			c-1.3-2.748-0.699-5.936-1.686-8.787c-0.187-0.54-1.092-0.832-1.37-0.18c-1.213,2.838-2.845,5.489-3.6,8.506
			C187.131,218.54,188.578,218.938,188.812,218L188.812,218z"/>
	</g>
</g>
</svg>
