<?xml version="1.0" encoding="utf-8"?>
<!-- Generator: Adobe Illustrator 16.0.0, SVG Export Plug-In . SVG Version: 6.00 Build 0)  -->
<!DOCTYPE svg PUBLIC "-//W3C//DTD SVG 1.1//EN" "http://www.w3.org/Graphics/SVG/1.1/DTD/svg11.dtd">
<svg version="1.1" id="Layer_1" xmlns="http://www.w3.org/2000/svg" xmlns:xlink="http://www.w3.org/1999/xlink" x="0px" y="0px"
	 width="283.46px" height="283.46px" viewBox="0 0 283.46 283.46" enable-background="new 0 0 283.46 283.46" xml:space="preserve">
<path fill="#E371A9" d="M53.321,145.043c-0.067-0.162-0.105-0.314-0.105-0.477c0-5.534,40.778-10.019,91.067-10.019
	c50.3,0,91.077,4.484,91.077,10.019c0,0.162-0.038,0.314-0.105,0.477h0.105c0,50.3-40.777,91.077-91.077,91.077
	c-50.289,0-91.067-40.777-91.067-91.077H53.321z"/>
<ellipse fill="#DFDD0D" cx="144.288" cy="149.721" rx="127.524" ry="18.988"/>
<path fill="#E371A9" d="M235.255,144.566c0.067,0.162,0.105,0.314,0.105,0.477c0,5.533-40.777,10.018-91.067,10.018
	c-50.299,0-91.077-4.484-91.077-10.018c0-0.162,0.038-0.314,0.104-0.477h-0.104c0-50.3,40.777-91.078,91.077-91.078
	c50.29,0,91.067,40.777,91.067,91.078H235.255z"/>
</svg>
