<?xml version="1.0" encoding="utf-8"?>
<!-- Generator: Adobe Illustrator 16.0.0, SVG Export Plug-In . SVG Version: 6.00 Build 0)  -->
<!DOCTYPE svg PUBLIC "-//W3C//DTD SVG 1.1//EN" "http://www.w3.org/Graphics/SVG/1.1/DTD/svg11.dtd">
<svg version="1.1" id="Layer_1" xmlns="http://www.w3.org/2000/svg" xmlns:xlink="http://www.w3.org/1999/xlink" x="0px" y="0px"
	 width="283.46px" height="283.46px" viewBox="0 0 283.46 283.46" enable-background="new 0 0 283.46 283.46" xml:space="preserve">
<path fill="#3CA8DF" d="M222.136,332.208"/>
<g>
	<path fill="#39A8E0" d="M14.633,177.125l43.26-0.666c1.411-0.02,2.574,1.105,2.594,2.519c0.02,1.408-1.103,2.566-2.517,2.588
		l-43.256,0.664c-1.415,0.024-2.579-1.102-2.599-2.511C12.093,178.309,13.222,177.146,14.633,177.125z"/>
</g>
<g>
	<path fill="#E20717" d="M68.398,196.372c-11.277,0.175-20.546-8.82-20.716-20.09c-0.17-11.268,8.814-20.546,20.086-20.719
		c11.276-0.171,20.549,8.824,20.716,20.089C88.659,186.923,79.67,196.201,68.398,196.372z"/>
</g>
<g>
	<path fill="#39A8E0" d="M14.831,190.619c-6.036,0.087-11.004-4.735-11.1-10.774c-0.09-6.04,4.726-11.012,10.764-11.103
		c6.048-0.097,11.015,4.727,11.109,10.769C25.697,185.55,20.88,190.518,14.831,190.619z"/>
</g>
<g>
	<path fill="#39A8E0" d="M264.362,170.687l-43.259,0.664c-1.413,0.019-2.577-1.109-2.594-2.518c-0.021-1.406,1.103-2.569,2.514-2.59
		l43.259-0.663c1.414-0.025,2.577,1.102,2.595,2.508C266.896,169.5,265.769,170.662,264.362,170.687z"/>
</g>
<g>
	<path fill="#E20717" d="M210.597,151.436c11.272-0.174,20.542,8.821,20.715,20.092c0.169,11.267-8.814,20.542-20.083,20.72
		c-11.278,0.17-20.552-8.826-20.717-20.09C190.337,160.885,199.326,151.609,210.597,151.436z"/>
</g>
<g>
	<path fill="none" d="M128.447,163.173c0,0,13.964-25.272,28.703-0.439C157.15,162.735,143.139,185.297,128.447,163.173z"/>
</g>
<g>
	<path fill="#39A8E0" d="M136.604,85.362c-39.632,0.609-71.22,36.329-70.552,79.778l1.337,116.32l143.527-2.203l-1.339-116.323
		C208.907,119.485,176.233,84.753,136.604,85.362z"/>
</g>
<g>
	<path fill="#39A8E0" d="M264.162,157.192c6.037-0.092,11.005,4.732,11.101,10.771c0.095,6.039-4.728,11.015-10.763,11.106
		c-6.048,0.093-11.016-4.731-11.11-10.771C253.294,162.259,258.116,157.287,264.162,157.192z"/>
</g>
<g>
	<path fill="#DEDC06" d="M159.629,93.504c0.098,6.37-7.573,11.662-17.139,11.809c-9.556,0.146-17.395-4.909-17.494-11.279
		l16.715-39.739L159.629,93.504z"/>
</g>
<g>
	<path fill="#F1ACCD" d="M186.464,160.883c-0.406-26.555-22.265-47.744-48.807-47.337c-26.549,0.408-47.74,22.263-47.337,48.814
		c0,0-3.966,62.376,49.029,61.57c53.002-0.818,47.162-60.255,47.162-60.255"/>
</g>
<g>
	<path fill="#FFFFFF" d="M103.391,156.14c0,0,13.962-25.273,28.697-0.439C132.087,155.701,118.08,178.261,103.391,156.14z"/>
</g>
<g>
	<path fill="#FFFFFF" d="M147.767,155.458c0,0,13.967-25.274,28.699-0.441C176.466,155.017,162.458,177.586,147.767,155.458z"/>
</g>
<g>
	<g>
		<path fill="#DEDC06" d="M102.962,153.672l-5.27-3.618c0.402-0.594,10.189-14.664,24.304-15.504
			c7.128-0.447,13.947,2.563,20.262,8.892c4.452-3.479,14.28-10.064,23.905-9.168c5.247,0.493,9.64,3.064,13.06,7.632l-5.127,3.825
			c-2.316-3.107-5.109-4.771-8.526-5.094c-8.223-0.777-18.253,6.626-21.419,9.541l-2.413,2.218l-2.161-2.465
			c-5.531-6.32-11.305-9.355-17.179-9.006C111.431,141.563,103.046,153.55,102.962,153.672z"/>
	</g>
</g>
<g>
	<g>
		<path fill="#DEDC06" d="M102.78,141.803l-5.268-3.614c0.406-0.595,10.191-14.665,24.302-15.504
			c7.039-0.445,13.757,2.479,20.002,8.634c3.601-3.476,10.704-9.187,18.555-8.949c5.198,0.144,9.714,2.739,13.438,7.718
			l-5.135,3.827c-2.521-3.383-5.289-5.069-8.471-5.158c-6.597-0.115-13.749,6.621-15.946,9.251l-2.396,2.867l-2.463-2.813
			c-5.531-6.318-11.304-9.348-17.18-9.008C111.254,129.698,102.867,141.682,102.78,141.803z"/>
	</g>
</g>
<g>
	<g>
		<path fill="#DEDC06" d="M115.915,179.067c-5.835,0.089-12.051-1.844-17.61-7.541l4.576-4.462
			c12.073,12.371,27.155,0.537,27.792,0.025l4.01,4.975C130.735,175.263,123.665,178.947,115.915,179.067z"/>
	</g>
</g>
<g>
	<g>
		<path fill="#DEDC06" d="M162.094,177.559c-5.66,0.087-11.707-2.024-18.044-6.309l3.574-5.293
			c6.694,4.516,12.72,6.104,17.943,4.727c7.097-1.887,10.491-8.638,10.528-8.708l5.732,2.823c-0.192,0.384-4.743,9.44-14.625,12.062
			C165.537,177.299,163.835,177.532,162.094,177.559z"/>
	</g>
</g>
<g>
	<g>
		<path fill="#E20717" d="M174.813,196.789c-23.78,0.363-35.456-17.589-38.319-27.237c-0.855-2.89,0.785-5.928,3.681-6.791
			c2.881-0.855,5.914,0.778,6.785,3.66c0.268,0.88,6.497,20.129,28.312,19.433c0.034-0.001,0.064,0,0.091-0.001
			c2.981-0.046,5.455,2.301,5.547,5.28c0.095,3.016-2.267,5.538-5.282,5.638C175.362,196.776,175.089,196.783,174.813,196.789z"/>
	</g>
</g>
<g>
	<path fill="#1E1E1C" d="M138.27,186.572c4.291,1.979,5.603,8.295,2.918,14.105c-2.678,5.808-8.327,8.911-12.611,6.93
		c-4.299-1.979-5.604-8.291-2.927-14.101C128.328,187.699,133.979,184.592,138.27,186.572z"/>
</g>
<g>
	<path fill="#E20717" d="M132.331,211.674c-1.533,0.026-3.011-0.281-4.381-0.914c-3.053-1.411-5.246-4.348-6.021-8.063
		c-0.698-3.383-0.201-7.161,1.409-10.645c2.636-5.717,7.675-9.465,12.846-9.546c1.542-0.022,3.013,0.285,4.381,0.919
		c3.063,1.411,5.253,4.352,6.013,8.062c0.702,3.394,0.205,7.171-1.394,10.651C142.542,207.851,137.504,211.596,132.331,211.674z
		 M136.29,189.448c-1.992,0.029-4.92,1.769-6.652,5.512c-0.968,2.104-1.304,4.417-0.902,6.33c0.184,0.898,0.709,2.511,2.13,3.165
		c0.416,0.191,0.875,0.287,1.362,0.275c1.996-0.026,4.923-1.766,6.646-5.511c0.974-2.109,1.312-4.415,0.909-6.326
		c-0.186-0.902-0.712-2.514-2.125-3.168C137.237,189.536,136.775,189.439,136.29,189.448z"/>
</g>
</svg>
