<?xml version="1.0" encoding="utf-8"?>
<!-- Generator: Adobe Illustrator 16.0.0, SVG Export Plug-In . SVG Version: 6.00 Build 0)  -->
<!DOCTYPE svg PUBLIC "-//W3C//DTD SVG 1.1//EN" "http://www.w3.org/Graphics/SVG/1.1/DTD/svg11.dtd">
<svg version="1.1" id="Layer_1" xmlns="http://www.w3.org/2000/svg" xmlns:xlink="http://www.w3.org/1999/xlink" x="0px" y="0px"
	 width="283.46px" height="283.46px" viewBox="0 0 283.46 283.46" enable-background="new 0 0 283.46 283.46" xml:space="preserve">
<g>
	<path fill="#E20613" d="M174.258,213.835c0,0,0.472,28.127,0.472,40.395c0,10.75-9.08,9.142-12.75,16.25
		c-8.261,16-20.25,12.98-31.25,0.5c-4.641-5.266-38.05-4.912-38.05-4.912v-52.232H174.258z"/>
</g>
<g>
	<path fill="#35A8E0" d="M208.031,69.873H182.61c-0.828,0-1.5-0.671-1.5-1.5s0.672-1.5,1.5-1.5h25.421c0.828,0,1.5,0.671,1.5,1.5
		S208.859,69.873,208.031,69.873z"/>
</g>
<g>
	<circle fill="#E20613" cx="176.621" cy="70.071" r="11.99"/>
</g>
<g>
	<path fill="#F1ABCC" d="M172.271,67.693c0-15.603-12.65-28.248-28.248-28.248c-15.599,0-28.247,12.646-28.247,28.248
		c0,0-2.895,36.61,28.247,36.61s28.248-34.97,28.248-34.97"/>
</g>
<g>
	<path fill="#FFFFFF" d="M128.509,64.235c0,0,8.433-14.721,16.866,0C145.375,64.235,136.941,77.365,128.509,64.235z"/>
</g>
<g>
	<path fill="none" d="M128.253,64.235c0,0,8.433-14.72,16.865,0C145.119,64.235,136.686,77.365,128.253,64.235z"/>
</g>
<path fill="#E20613" d="M132.735,59.749c-0.165,0-0.32,0.031-0.48,0.048c-2.295,1.913-3.746,4.438-3.746,4.438
	c1.365,2.125,2.729,3.554,4.059,4.47c0.057,0.002,0.11,0.017,0.167,0.017c2.478,0,4.487-2.009,4.487-4.487
	S135.213,59.749,132.735,59.749z"/>
<g>
	<path fill="#FFFFFF" d="M154.585,64.235c0,0,8.432-14.721,16.865,0C171.451,64.235,163.017,77.365,154.585,64.235z"/>
</g>
<path fill="#E20613" d="M158.811,59.749c-0.165,0-0.319,0.031-0.479,0.048c-2.296,1.913-3.746,4.438-3.746,4.438
	c1.365,2.125,2.729,3.554,4.059,4.47c0.057,0.002,0.109,0.017,0.167,0.017c2.478,0,4.487-2.009,4.487-4.487
	S161.289,59.749,158.811,59.749z"/>
<g>
	<g>
		<path fill="#DDDB00" d="M125.211,61.429l-3.329-2.359c0.267-0.376,6.649-9.261,15.664-9.657c4.555-0.215,8.876,1.772,12.845,5.874
			c2.875-2.176,9.212-6.285,15.348-5.616c3.343,0.364,6.121,2.047,8.257,4.998l-3.308,2.391c-1.448-2.006-3.215-3.095-5.391-3.333
			c-5.243-0.578-11.716,4.05-13.766,5.88l-1.562,1.391l-1.354-1.595c-3.466-4.085-7.124-6.081-10.875-5.915
			C130.735,53.785,125.268,61.352,125.211,61.429z"/>
	</g>
</g>
<g>
	<g>
		<path fill="#DDDB00" d="M125.211,53.853l-3.329-2.358c0.267-0.378,6.649-9.261,15.664-9.657c4.496-0.215,8.755,1.718,12.683,5.706
			c2.334-2.183,6.921-5.758,11.932-5.528c3.312,0.141,6.168,1.843,8.493,5.057l-3.309,2.391c-1.578-2.182-3.33-3.286-5.358-3.374
			c-4.206-0.139-8.838,4.089-10.267,5.748l-1.558,1.807l-1.544-1.819c-3.468-4.085-7.125-6.079-10.875-5.915
			C130.735,46.209,125.268,53.776,125.211,53.853z"/>
	</g>
</g>
<g>
	<g>
		<path fill="#DDDB00" d="M133.23,77.764c-3.728,0-7.674-1.295-11.166-4.984l2.964-2.803c7.583,8.014,17.327,0.608,17.737,0.289
			l2.512,3.214C142.727,75.483,138.175,77.764,133.23,77.764z"/>
	</g>
</g>
<g>
	<g>
		<path fill="#DDDB00" d="M162.719,77.256c-3.614,0-7.454-1.407-11.458-4.205l2.336-3.343c4.225,2.948,8.057,4.022,11.4,3.192
			c4.556-1.135,6.785-5.411,6.81-5.454l3.631,1.857c-0.123,0.243-3.118,5.979-9.455,7.554
			C164.917,77.124,163.83,77.256,162.719,77.256z"/>
	</g>
</g>
<g>
	<path fill="#35A8E0" d="M134.626,21.562c-23.287,0-42.167,20.699-42.167,46.231v51.109h84.333V67.793
		C176.793,42.261,157.913,21.562,134.626,21.562z M144.021,104.304c-31.142,0-28.247-36.61-28.247-36.61
		c0-15.603,12.648-28.248,28.247-28.248c15.6,0,28.249,12.646,28.249,28.248v1.641C172.271,69.336,175.162,104.304,144.021,104.304z
		"/>
</g>
<g>
	<circle fill="#E20613" cx="99.073" cy="72.236" r="11.989"/>
</g>
<g>
	<g>
		<path fill="#E20613" d="M172.56,88.793c-13.973,0-20.67-10.651-22.266-16.346c-0.479-1.705,0.515-3.474,2.223-3.955
			c1.699-0.476,3.468,0.513,3.95,2.211c0.152,0.519,3.639,11.886,16.459,11.671c0.021,0,0.038,0,0.055,0
			c1.749,0,3.18,1.4,3.209,3.153c0.028,1.771-1.381,3.232-3.154,3.264C172.878,88.792,172.719,88.793,172.56,88.793z"/>
	</g>
</g>
<g>
	<path fill="#35A8E0" d="M97.355,73.736H71.934c-0.829,0-1.5-0.671-1.5-1.5s0.671-1.5,1.5-1.5h25.421c0.829,0,1.5,0.671,1.5,1.5
		S98.184,73.736,97.355,73.736z"/>
</g>
<g>
	<circle fill="#35A8E0" cx="66.034" cy="72.158" r="6.427"/>
</g>
<g>
	<circle fill="#35A8E0" cx="208.033" cy="68.373" r="6.427"/>
</g>
<g>
	
		<ellipse transform="matrix(0.4326 -0.9016 0.9016 0.4326 3.1536 182.144)" fill="#1D1D1B" cx="146.281" cy="88.567" rx="6.805" ry="5.027"/>
</g>
<g>
	<path fill="#E20613" d="M145.014,97.12c-0.903,0-1.771-0.195-2.567-0.578c-1.783-0.855-3.045-2.602-3.464-4.79
		c-0.381-1.995-0.055-4.211,0.922-6.241c1.6-3.336,4.597-5.491,7.631-5.491c0.904,0,1.77,0.194,2.565,0.578
		c1.785,0.856,3.048,2.604,3.464,4.792c0.38,1.997,0.055,4.212-0.919,6.242C151.042,94.964,148.048,97.12,145.014,97.12z
		 M147.536,84.098c-1.17,0-2.906,0.995-3.955,3.178c-0.591,1.229-0.806,2.582-0.591,3.709c0.103,0.531,0.395,1.482,1.224,1.88
		c0.241,0.116,0.511,0.176,0.801,0.176c1.17,0,2.906-0.995,3.951-3.18c0.592-1.229,0.81-2.581,0.592-3.708
		c-0.1-0.531-0.395-1.482-1.22-1.879C148.093,84.159,147.825,84.098,147.536,84.098z"/>
</g>
<g>
	<path fill="#35A8E0" d="M207.398,209.39c0,9.012-9.698,16.319-21.653,16.319H82.191c-11.959,0-21.654-7.308-21.654-16.319v-77.917
		c0-9.013,9.694-16.317,21.654-16.317h103.554c11.955,0,21.653,7.307,21.653,16.317V209.39z"/>
</g>
<g>
	<path fill="#E20613" d="M207.398,134.329c10.485,0,18.988,8.503,18.988,18.991c0,10.488-8.503,18.991-18.988,18.991V134.329z"/>
</g>
<g>
	<circle fill="#E20613" cx="154.751" cy="179.589" r="4.814"/>
</g>
<g>
	<circle fill="#E20613" cx="171.086" cy="179.589" r="4.814"/>
</g>
<g>
	<circle fill="#E20613" cx="187.425" cy="179.589" r="4.814"/>
</g>
<g>
	<path fill="none" d="M207.398,209.39c0,9.012-9.698,16.319-21.653,16.319H82.191c-11.959,0-21.654-7.308-21.654-16.319v-77.917
		c0-9.013,9.694-16.317,21.654-16.317h103.554c11.955,0,21.653,7.307,21.653,16.317V209.39z"/>
</g>
<g>
	<path fill="#F1ABCC" d="M81.989,206.181H60.025v-3h20.464v-18.169c0-0.828,0.671-1.5,1.5-1.5h22.24v-24.613h3v26.113
		c0,0.828-0.671,1.5-1.5,1.5h-22.24v18.169C83.489,205.509,82.817,206.181,81.989,206.181z"/>
</g>
<g>
	<path fill="#F1ABCC" d="M144.773,146.013h-3v-21.365c0-0.829,0.672-1.5,1.5-1.5h40.835v-7.778h3v9.278c0,0.829-0.672,1.5-1.5,1.5
		h-40.835V146.013z"/>
</g>
<g>
	<path fill="#F1ABCC" d="M138.828,221.782H97.355c-0.829,0-1.5-0.672-1.5-1.5v-20.881H81.989v-3h15.367c0.829,0,1.5,0.672,1.5,1.5
		v20.881h38.473v-14.101c0-0.828,0.671-1.5,1.5-1.5h39.668v-10.369c0-0.828,0.672-1.5,1.5-1.5h27.879v3h-26.379v10.369
		c0,0.828-0.672,1.5-1.5,1.5h-39.668v14.101C140.328,221.11,139.657,221.782,138.828,221.782z"/>
</g>
<g>
	<path fill="#F1ABCC" d="M109.375,142.961h-3v-11.246H85.461c-0.829,0-1.5-0.671-1.5-1.5v-15.149h3v13.649h20.915
		c0.829,0,1.5,0.671,1.5,1.5V142.961z"/>
</g>
<g>
	<path fill="#E20613" d="M182.925,225.795h-3v-7.744h-28.312c-0.828,0-1.5-0.672-1.5-1.5v-20.883h-34.048
		c-0.829,0-1.5-0.672-1.5-1.5V162.63h3v30.038h34.048c0.828,0,1.5,0.672,1.5,1.5v20.883h28.312c0.828,0,1.5,0.672,1.5,1.5V225.795z"
		/>
</g>
<g>
	<rect x="86.753" y="137.536" fill="#DDDB00" width="111.217" height="28.148"/>
</g>
<g>
	<path fill="#DDDB00" d="M147.201,23.588c0,3.745-4.555,6.782-10.172,6.782c-5.619,0-10.175-3.038-10.175-6.782l10.175-23.194
		L147.201,23.588z"/>
</g>
<g>
	<rect x="91.745" y="234.954" fill="none" width="95.527" height="16.956"/>
</g>
<g>
	<rect x="91.745" y="234.954" fill="#DDDB00" width="82.985" height="16.956"/>
</g>
<g>
	<rect x="91.745" y="234.954" fill="none" width="95.527" height="16.956"/>
</g>
<g>
	<rect x="96.345" y="229.513" fill="#E20613" width="3" height="29.505"/>
</g>
<g>
	<rect x="91.745" y="234.954" fill="none" width="95.527" height="16.956"/>
</g>
<g>
	<rect x="108.209" y="229.513" fill="#E20613" width="3" height="29.505"/>
</g>
<g>
	<rect x="91.745" y="234.954" fill="none" width="95.527" height="16.956"/>
</g>
<g>
	<rect x="120.076" y="229.513" fill="#E20613" width="3" height="29.505"/>
</g>
<g>
	<rect x="91.745" y="234.954" fill="none" width="95.527" height="16.956"/>
</g>
<g>
	<rect x="131.941" y="229.513" fill="#E20613" width="3" height="29.505"/>
</g>
<g>
	<rect x="91.745" y="234.954" fill="none" width="95.527" height="16.956"/>
</g>
<g>
	<rect x="143.804" y="229.513" fill="#E20613" width="3" height="29.505"/>
</g>
<g>
	<rect x="91.745" y="234.954" fill="none" width="95.527" height="16.956"/>
</g>
<g>
	<rect x="155.673" y="229.513" fill="#E20613" width="3" height="29.505"/>
</g>
<g>
	<rect x="91.745" y="234.954" fill="none" width="95.527" height="16.956"/>
</g>
<g>
	<rect x="167.535" y="229.513" fill="#E20613" width="3" height="29.505"/>
</g>
<g>
	<rect x="91.745" y="234.954" fill="none" width="95.527" height="16.956"/>
</g>
<g>
	<circle fill="#1D1D1B" cx="151.536" cy="243.729" r="11.483"/>
</g>
<g>
	<path fill="#1D1D1B" d="M134.626,156.387c0,1.488-1.47,2.694-3.281,2.694H95.744c-1.812,0-3.283-1.207-3.283-2.694v-9.559
		c0-1.487,1.471-2.689,3.283-2.689h35.601c1.812,0,3.281,1.204,3.281,2.689V156.387z"/>
</g>
<g>
	<circle fill="#E20613" cx="63.713" cy="153.32" r="19.061"/>
</g>
</svg>
