<?xml version="1.0" encoding="utf-8"?>
<!-- Generator: Adobe Illustrator 16.0.0, SVG Export Plug-In . SVG Version: 6.00 Build 0)  -->
<!DOCTYPE svg PUBLIC "-//W3C//DTD SVG 1.1//EN" "http://www.w3.org/Graphics/SVG/1.1/DTD/svg11.dtd">
<svg version="1.1" id="Layer_1" xmlns="http://www.w3.org/2000/svg" xmlns:xlink="http://www.w3.org/1999/xlink" x="0px" y="0px"
	 width="283.46px" height="283.46px" viewBox="0 0 283.46 283.46" enable-background="new 0 0 283.46 283.46" xml:space="preserve">
<g>
	<path fill="#39A8E0" d="M224.247,143.042c-0.313,4.82-2.031,9.633-5.206,13.75c-5.875,7.617-15.252,10.943-24.104,9.484
		c-19.827,26.379-95.328-0.896-95.328-0.896l2.953-15.523c36.501-16.646,59.06-17.011,71.883-14.021
		c0.783-3.481,2.307-6.846,4.637-9.869c1.975-2.558,4.34-4.63,6.962-6.201c-2.687-9.648-0.949-20.373,5.624-28.896
		c0.904-1.173,1.872-2.268,2.921-3.27c-3.329-11.316-1.364-24.01,6.381-34.052c12.837-16.644,36.765-19.73,53.404-6.893
		c16.659,12.854,19.751,36.775,6.909,53.417c-3.07,3.985-6.777,7.199-10.868,9.598c0.299,7.411-1.897,14.953-6.781,21.283
		C238.631,137.442,231.694,141.542,224.247,143.042z"/>
	<g>
		<path fill="#E20717" d="M46.139,207.371l-0.335-73.981l59.016-0.266c7.888-0.038,14.307,6.327,14.343,14.213l0.097,20.953
			c0.036,7.887-6.327,14.33-14.212,14.364l-29.889,0.139C72.792,196.703,60.701,207.304,46.139,207.371z"/>
		<path fill="#DEDC06" d="M46.156,210.911c-3.04,0.015-5.519-2.192-5.528-4.922l-0.322-71.176c-0.013-2.734,2.444-4.964,5.479-4.979
			l0,0c3.037-0.014,5.511,2.192,5.525,4.926l0.32,71.177C51.646,208.67,49.193,210.894,46.156,210.911L46.156,210.911z"/>
		<circle fill="#39A8E0" cx="90.935" cy="157.947" r="10.846"/>
	</g>
</g>
</svg>
