<?xml version="1.0" encoding="utf-8"?>
<!-- Generator: Adobe Illustrator 16.0.0, SVG Export Plug-In . SVG Version: 6.00 Build 0)  -->
<!DOCTYPE svg PUBLIC "-//W3C//DTD SVG 1.1//EN" "http://www.w3.org/Graphics/SVG/1.1/DTD/svg11.dtd">
<svg version="1.1" id="Layer_1" xmlns="http://www.w3.org/2000/svg" xmlns:xlink="http://www.w3.org/1999/xlink" x="0px" y="0px"
	 width="283.46px" height="283.46px" viewBox="0 0 283.46 283.46" enable-background="new 0 0 283.46 283.46" xml:space="preserve">
<path fill="#A76AA9" d="M0,283.46c1.083,0,46.83-37.061,68.414-107.672c21.621-70.73,51.849-130.909,73.316-130.92
	c20.2-0.011,44.835,47.689,60.848,122.192c12.934,60.178,55.778,109.169,80.882,116.4H0"/>
<path fill="#FFFFFF" d="M99.087,121.174c2.743,13.715,17.955,15.461,22.194,1.746s20.449-10.723,22.444,2.743
	s17.955,13.715,19.451-1.497s11.223-10.474,15.462,1.746c2.541,7.324,9.38,7.208,14.399,3.204
	c-15.309-52.36-34.791-84.257-51.308-84.248c-14.576,0.008-33.191,27.76-50.409,67.715
	C95.105,114.121,98.202,116.748,99.087,121.174z"/>
</svg>
